<svg width="188" height="160" viewBox="0 0 188 160" fill="none" xmlns="http://www.w3.org/2000/svg">
  <path d="M107.38 33.73C97.57 28.07 88.64 27.21 81.93 30.39L76.54 33.45V33.48C83.23 30.37 92.12 31.25 101.86 36.88C122.67 48.9 139.54 78 139.54 101.88C139.54 113.47 135.56 121.7 129.09 125.73L132.71 123.62C140.29 120.09 145.06 111.43 145.06 98.74C145.06 74.85 128.19 45.75 107.38 33.73Z" fill="url(#paint0_linear_4202_1313)" />
  <path d="M101.86 36.8703C81.0497 24.8503 64.1797 34.4703 64.1797 58.3503C64.1797 82.2303 81.0497 111.33 101.86 123.35C122.67 135.37 139.54 125.75 139.54 101.87C139.54 77.9903 122.67 48.8903 101.86 36.8703Z" fill="url(#paint1_linear_4202_1313)" />
  <path d="M102.419 36.5602C91.8693 30.4702 82.3293 29.9402 75.4893 34.0102C82.2893 30.2902 91.5992 30.9502 101.869 36.8802C122.679 48.9002 139.549 77.9902 139.549 101.88C139.549 113.65 135.449 121.95 128.799 125.91C135.779 122.09 140.109 113.66 140.109 101.56C140.099 77.6702 123.229 48.5702 102.419 36.5602Z" fill="white" />
  <path d="M139.54 101.87C139.54 125.75 122.67 135.37 101.86 123.35C81.0497 111.33 64.1797 82.2303 64.1797 58.3503C64.1797 34.4703 81.0497 24.8503 101.86 36.8703C122.67 48.8903 139.54 77.9903 139.54 101.87Z" fill="url(#paint2_linear_4202_1313)" />
  <path d="M127.221 123.489C141.052 115.403 140.911 89.4254 126.904 65.4668C112.897 41.5082 90.33 28.6411 76.4984 36.7273C62.6668 44.8135 62.8087 70.7909 76.8153 94.7495C90.8219 118.708 113.389 131.575 127.221 123.489Z" fill="white" />
  <path d="M123.567 117.239C135.405 110.318 135.284 88.0835 123.295 67.5769C111.307 47.0703 91.9912 36.057 80.1525 42.9781C68.3139 49.8991 68.4354 72.1337 80.4239 92.6403C92.4125 113.147 111.728 124.16 123.567 117.239Z" fill="#AFB6E5" />
  <path d="M119.453 110.204C129.046 104.595 128.945 86.5753 119.229 69.9545C109.512 53.3337 93.8581 44.4062 84.2651 50.0144C74.6721 55.6226 74.7725 73.6428 84.4893 90.2636C94.2062 106.884 109.86 115.812 119.453 110.204Z" fill="white" />
  <path d="M115.567 103.556C123.043 99.1853 122.967 85.1446 115.396 72.195C107.825 59.2455 95.6278 52.2909 88.1518 56.6615C80.6758 61.0321 80.7524 75.0729 88.3229 88.0224C95.8934 100.972 108.091 107.927 115.567 103.556Z" fill="#AFB6E5" />
  <path d="M111.913 97.3065C117.396 94.101 117.34 83.8032 111.787 74.3056C106.235 64.808 97.2889 59.7073 91.8058 62.9128C86.3228 66.1182 86.3791 76.4161 91.9315 85.9137C97.4839 95.4112 106.43 100.512 111.913 97.3065Z" fill="white" />
  <path d="M102.41 120.67C82.7297 109.31 66.7697 81.7803 66.7697 59.1903C66.7697 48.4103 70.4097 40.7003 76.3497 36.8203C70.0797 40.5703 66.2197 48.4203 66.2197 59.5303C66.2197 82.1203 82.1797 109.64 101.86 121.01C112.15 126.95 121.41 127.3 127.92 123.05C121.45 126.93 112.41 126.44 102.41 120.67Z" fill="#AFB6E5" />
  <path d="M102.41 108.14C88.7497 100.26 77.6897 81.1602 77.6897 65.4902C77.6897 57.9802 80.2396 52.6302 84.3896 49.9502C79.9096 52.5002 77.1396 58.0002 77.1396 65.8302C77.1396 81.5002 88.2097 100.59 101.86 108.48C108.97 112.59 115.38 112.83 119.89 109.92C115.41 112.48 109.24 112.08 102.41 108.14Z" fill="#CED3F4" />
  <path d="M102.41 95.9803C94.6095 91.4703 88.2795 80.5604 88.2795 71.6104C88.2795 67.4404 89.6595 64.4204 91.9095 62.8604C89.3295 64.3104 87.7295 67.4604 87.7295 71.9604C87.7295 80.9104 94.0595 91.8204 101.859 96.3304C106.029 98.7304 109.77 98.8303 112.35 97.0303C109.8 98.4604 106.29 98.2203 102.41 95.9803Z" fill="#CED3F4" />
  <path d="M109.72 84.65C109.72 89.63 106.2 91.64 101.86 89.13C97.52 86.62 94 80.55 94 75.57C94 70.59 97.52 68.58 101.86 71.09C106.2 73.6 109.72 79.67 109.72 84.65Z" fill="url(#paint3_linear_4202_1313)" />
  <path opacity="0.5" d="M102.7 80.2901C102.7 80.6801 102.42 80.8401 102.08 80.6401C101.74 80.4401 101.46 79.9601 101.46 79.5701C101.46 79.1801 101.74 79.0201 102.08 79.2201C102.42 79.4201 102.7 79.9001 102.7 80.2901Z" fill="url(#paint4_linear_4202_1313)" />
  <path d="M101.86 71.09C99.8997 69.96 98.0997 69.7501 96.7197 70.3201C98.0197 69.9901 99.6097 70.2701 101.33 71.2701C105.67 73.7801 109.19 79.85 109.19 84.83C109.19 87.56 108.13 89.39 106.46 90.08C108.43 89.58 109.71 87.66 109.71 84.65C109.72 79.67 106.2 73.6 101.86 71.09Z" fill="#F36D7E" />
  <path d="M45.3604 113.06L41.2404 112.5C38.9904 112.2 38.7804 109.02 40.9704 108.42L64.0704 102.11L45.3604 113.06Z" fill="url(#paint5_linear_4202_1313)" />
  <path d="M45.5202 112.66L41.4002 112.1C39.9702 111.91 39.3702 110.56 39.6702 109.45C39.0702 110.61 39.6303 112.29 41.2403 112.51L45.3602 113.07L64.0703 102.12L63.0802 102.39L45.5202 112.66Z" fill="#5277AB" />
  <path opacity="0.7" d="M41.3403 112.22L45.4603 112.78L63.3403 102.31L63.0803 102.38L45.5303 112.66L41.4103 112.1C39.9803 111.91 39.3803 110.56 39.6803 109.45C39.6603 109.5 39.6403 109.55 39.6203 109.59C39.3203 110.7 39.9203 112.03 41.3403 112.22Z" fill="#BB5987" />
  <path d="M103.47 79.4102C103.47 79.4902 103.44 79.5502 103.4 79.5802C103.4 79.5802 102.99 81.4702 97.94 84.4002C90.72 88.5802 93.94 86.3602 93.94 86.3602C93.75 86.4702 93.87 86.2302 93.58 86.0602C93 85.7202 92.52 84.9102 92.52 84.2402C92.52 83.9102 92.2099 83.9102 92.3999 83.8002C92.3999 83.8002 88.8699 85.4902 96.0899 81.3102C101.16 78.3802 103.03 78.9602 103.03 78.9602C103.08 78.9302 103.14 78.9402 103.22 78.9802C103.35 79.0402 103.47 79.2402 103.47 79.4102Z" fill="#AFB6E5" />
  <path d="M94.4899 85.7501C94.4899 86.5101 93.9498 86.82 93.2898 86.43C92.6298 86.05 92.0898 85.1201 92.0898 84.3601C92.0898 83.6001 92.6298 83.29 93.2898 83.68C93.9498 84.06 94.4899 84.9901 94.4899 85.7501Z" fill="#CED3F4" />
  <path d="M94.2498 85.78C94.2498 86.13 94.1298 86.39 93.9298 86.51L44.0898 115.48C43.8798 115.6 44.0198 115.33 43.6998 115.15C43.0698 114.78 42.5498 113.9 42.5498 113.17C42.5498 112.81 42.2198 112.81 42.4198 112.69L92.2998 83.72C92.5098 83.61 92.7898 83.63 93.0998 83.81C93.7398 84.17 94.2498 85.05 94.2498 85.78Z" fill="url(#paint6_linear_4202_1313)" />
  <path d="M44.3801 114.76C44.3801 115.49 43.8701 115.78 43.2301 115.41C42.6001 115.04 42.0801 114.16 42.0801 113.43C42.0801 112.7 42.5901 112.41 43.2301 112.78C43.8701 113.15 44.3801 114.03 44.3801 114.76Z" fill="#AA1C5A" />
  <path d="M44.6702 111.55L63.7703 100.54L48.8603 99.3204C43.2803 98.8604 39.8002 105.26 43.2302 109.69L44.6702 111.55Z" fill="#5277AB" />
  <path d="M44.9701 111.49L64.0701 100.48L49.1601 99.2603C43.5801 98.8003 40.1001 105.2 43.5301 109.63L44.9701 111.49Z" fill="url(#paint7_linear_4202_1313)" />
  <path opacity="0.7" d="M43.8208 109.75C40.3908 105.32 43.8608 98.9203 49.4508 99.3803L63.9308 100.57L64.0808 100.48L49.1708 99.2603C43.5908 98.8003 40.1108 105.2 43.5408 109.63L44.9808 111.49L45.1108 111.41L43.8208 109.75Z" fill="#BB5987" />
  <path d="M45.8809 113.79L46.3509 115.48C47.6009 119.98 53.5909 120.87 56.1009 116.93L64.9909 102.96L45.8809 113.79Z" fill="#5277AB" />
  <path d="M46.1807 113.55L46.6507 115.24C47.9007 119.74 53.8907 120.63 56.4007 116.69L65.2907 102.72L46.1807 113.55Z" fill="url(#paint8_linear_4202_1313)" />
  <path opacity="0.7" d="M56.5499 116.4C54.0399 120.34 48.0599 119.45 46.7999 114.95L46.3799 113.43L46.1699 113.55L46.6399 115.24C47.8899 119.74 53.8799 120.63 56.3899 116.69L65.2799 102.72L65.2499 102.74L56.5499 116.4Z" fill="#BB5987" />
  <defs>
    <linearGradient id="paint0_linear_4202_1313" x1="145.446" y1="114.067" x2="86.7793" y2="27.4002" gradientUnits="userSpaceOnUse">
      <stop offset="0.0909" stop-color="#4088AF" />
      <stop offset="0.5" stop-color="#3882AD" />
      <stop offset="0.691" stop-color="#4EB6DD" />
      <stop offset="0.798" stop-color="#58CFF3" />
      <stop offset="1" stop-color="#3888B7" />
    </linearGradient>
    <linearGradient id="paint1_linear_4202_1313" x1="64.1779" y1="58.3585" x2="139.542" y2="58.3585" gradientUnits="userSpaceOnUse">
      <stop stop-color="#911B61" />
      <stop offset="0.1976" stop-color="#5E0F53" />
      <stop offset="0.3953" stop-color="#310446" />
      <stop offset="0.4949" stop-color="#200041" />
      <stop offset="1" stop-color="#0F001F" />
    </linearGradient>
    <linearGradient id="paint2_linear_4202_1313" x1="124.762" y1="58.7601" x2="75.4291" y2="104.76" gradientUnits="userSpaceOnUse">
      <stop stop-color="#0082C5" />
      <stop offset="0.3301" stop-color="#2D7CB7" />
      <stop offset="0.6313" stop-color="#5277AB" />
      <stop offset="0.6752" stop-color="#5B76A9" />
      <stop offset="0.7464" stop-color="#7375A2" />
      <stop offset="0.8361" stop-color="#9A7397" />
      <stop offset="0.9398" stop-color="#D06F88" />
      <stop offset="1" stop-color="#F36D7E" />
    </linearGradient>
    <linearGradient id="paint3_linear_4202_1313" x1="85.3401" y1="100.383" x2="105.786" y2="75.299" gradientUnits="userSpaceOnUse">
      <stop offset="0.00505051" stop-color="#BB5987" />
      <stop offset="0.0529" stop-color="#C45C86" />
      <stop offset="0.2205" stop-color="#DE6581" />
      <stop offset="0.3713" stop-color="#ED6B7F" />
      <stop offset="0.4899" stop-color="#F36D7E" />
      <stop offset="1" stop-color="#F36D91" />
    </linearGradient>
    <linearGradient id="paint4_linear_4202_1313" x1="101.462" y1="79.9367" x2="102.7" y2="79.9367" gradientUnits="userSpaceOnUse">
      <stop stop-color="#911B61" />
      <stop offset="0.1976" stop-color="#5E0F53" />
      <stop offset="0.3953" stop-color="#310446" />
      <stop offset="0.4949" stop-color="#200041" />
      <stop offset="1" stop-color="#0F001F" />
    </linearGradient>
    <linearGradient id="paint5_linear_4202_1313" x1="39.4316" y1="107.588" x2="64.0658" y2="107.588" gradientUnits="userSpaceOnUse">
      <stop offset="0.00505051" stop-color="#0082C5" />
      <stop offset="0.399" stop-color="#5277AB" />
      <stop offset="0.4833" stop-color="#6176A7" />
      <stop offset="0.6468" stop-color="#8A749B" />
      <stop offset="0.8709" stop-color="#CB7089" />
      <stop offset="1" stop-color="#F36D7E" />
    </linearGradient>
    <linearGradient id="paint6_linear_4202_1313" x1="67.5464" y1="97.987" x2="69.2059" y2="100.869" gradientUnits="userSpaceOnUse">
      <stop offset="0.00505051" stop-color="#273B60" />
      <stop offset="0.0714" stop-color="#37375F" />
      <stop offset="0.2008" stop-color="#602E5D" />
      <stop offset="0.379" stop-color="#A21E5A" />
      <stop offset="0.399" stop-color="#AA1C5A" />
      <stop offset="0.8712" stop-color="#870647" />
      <stop offset="1" stop-color="#7C0042" />
    </linearGradient>
    <linearGradient id="paint7_linear_4202_1313" x1="44.2666" y1="106.237" x2="85.9203" y2="85.7478" gradientUnits="userSpaceOnUse">
      <stop offset="0.00505051" stop-color="#0082C5" />
      <stop offset="0.399" stop-color="#5277AB" />
      <stop offset="0.4833" stop-color="#6176A7" />
      <stop offset="0.6468" stop-color="#8A749B" />
      <stop offset="0.8709" stop-color="#CB7089" />
      <stop offset="1" stop-color="#F36D7E" />
    </linearGradient>
    <linearGradient id="paint8_linear_4202_1313" x1="49.9252" y1="116.769" x2="74.4671" y2="87.7241" gradientUnits="userSpaceOnUse">
      <stop offset="0.00505051" stop-color="#0082C5" />
      <stop offset="0.399" stop-color="#5277AB" />
      <stop offset="0.4833" stop-color="#6176A7" />
      <stop offset="0.6468" stop-color="#8A749B" />
      <stop offset="0.8709" stop-color="#CB7089" />
      <stop offset="1" stop-color="#F36D7E" />
    </linearGradient>
  </defs>
</svg>