<svg width="97" height="110" viewBox="0 0 97 110" fill="none" xmlns="http://www.w3.org/2000/svg">
  <path d="M93.4504 74.9898C93.4504 49.7998 75.6504 19.0998 53.7004 6.4198C43.1104 0.309795 33.5004 -0.500213 26.3704 3.12979L26.3504 3.08978L20.1904 6.5198L23.0504 11.4298C21.7204 15.2198 21.0004 19.6798 21.0004 24.7498C21.0004 49.9398 38.8004 80.6398 60.7504 93.3198C65.2604 95.9198 69.5904 97.5598 73.6304 98.3098L76.5504 103.32L80.6704 101.1C88.5304 97.3198 93.4504 88.2398 93.4504 74.9898Z" fill="url(#paint0_linear_108_12519)" />
  <path d="M87.9199 78.0098C87.9199 103.2 70.1199 113.35 48.1699 100.68C26.2099 87.9998 8.41992 57.2998 8.41992 32.1098C8.41992 6.91983 26.2199 -3.23018 48.1699 9.43982C70.1199 22.1098 87.9199 52.8098 87.9199 78.0098Z" fill="url(#paint1_linear_108_12519)" />
  <path d="M72.3018 96.3419C85.4659 88.6459 85.3298 63.9202 71.9978 41.1155C58.6657 18.3107 37.1863 6.06263 24.0222 13.7586C10.8581 21.4546 10.9943 46.1803 24.3263 68.985C37.6584 91.7898 59.1377 104.038 72.3018 96.3419Z" fill="white" />
  <path d="M77.7902 91.1201C80.5202 87.0901 82.0902 81.5301 82.0902 74.6401C82.0902 74.5401 82.0802 74.4301 82.0802 74.3301L48.1602 55.0601L77.7902 91.1201Z" fill="url(#paint2_linear_108_12519)" />
  <path d="M49.5402 93.29C30.8002 82.47 15.6202 56.28 15.6202 34.78C15.6202 24.02 19.4302 16.47 25.5802 12.98C18.6202 16.09 14.2402 23.93 14.2402 35.47C14.2402 56.97 29.4302 83.17 48.1602 93.98C57.5102 99.38 65.9802 99.93 72.1202 96.44C66.1202 99.12 58.2202 98.3 49.5402 93.29Z" fill="url(#paint3_linear_108_12519)" />
  <path d="M50.0198 56.1302C50.0198 57.3102 49.1898 57.7802 48.1598 57.1902C47.1398 56.6002 46.2998 55.1702 46.2998 53.9902C46.2998 52.8102 47.1298 52.3402 48.1598 52.9302C49.1898 53.5202 50.0198 54.9502 50.0198 56.1302Z" fill="url(#paint4_linear_108_12519)" />
  <path d="M48.6799 21.9798C48.3999 21.8198 48.1699 21.3798 48.1699 20.9998V19.2699C48.1699 18.8899 48.3999 18.7198 48.6799 18.8798C48.9599 19.0398 49.1899 19.4798 49.1899 19.8598V21.5898C49.1899 21.9698 48.9599 22.1398 48.6799 21.9798Z" fill="#AFB6E5" />
  <path d="M48.6799 91.2298C48.3999 91.0698 48.1699 90.6298 48.1699 90.2498V88.5199C48.1699 88.1399 48.3999 87.9698 48.6799 88.1298C48.9599 88.2898 49.1899 88.7298 49.1899 89.1098V90.8398C49.1899 91.2198 48.9599 91.3898 48.6799 91.2298Z" fill="#AFB6E5" />
  <path d="M19.8599 38.4099C19.8599 38.7399 19.6599 38.89 19.4199 38.74L17.6099 37.6899C17.3699 37.5499 17.1699 37.1699 17.1699 36.8399C17.1699 36.5099 17.3699 36.3599 17.6099 36.5099L19.4199 37.5599C19.6599 37.7099 19.8599 38.0899 19.8599 38.4099Z" fill="#AFB6E5" />
  <path d="M80.1998 73.2498C80.1998 73.5798 79.9998 73.7298 79.7598 73.5798L77.9498 72.5298C77.7098 72.3898 77.5098 72.0098 77.5098 71.6798C77.5098 71.3498 77.7098 71.1998 77.9498 71.3498L79.7598 72.3998C80.0098 72.5498 80.1998 72.9298 80.1998 73.2498Z" fill="#AFB6E5" />
  <path d="M34.2697 18.0899C34.0197 18.1099 33.7097 17.8299 33.5697 17.4699L32.7297 15.3299C32.5897 14.9699 32.6697 14.6499 32.9197 14.6299C33.1697 14.6099 33.4797 14.8899 33.6197 15.2499L34.4597 17.3899C34.5997 17.7599 34.5097 18.0699 34.2697 18.0899Z" fill="#AFB6E5" />
  <path d="M64.4396 95.48C64.1896 95.5 63.8796 95.22 63.7396 94.86L62.8996 92.72C62.7596 92.36 62.8396 92.0401 63.0896 92.0201C63.3396 92.0001 63.6496 92.28 63.7896 92.64L64.6296 94.78C64.7696 95.15 64.6896 95.46 64.4396 95.48Z" fill="#AFB6E5" />
  <path d="M23.72 57.1801C23.86 57.5401 23.78 57.8601 23.53 57.8801L22.08 58.0001C21.83 58.0201 21.52 57.7401 21.38 57.3801C21.24 57.0201 21.32 56.7001 21.57 56.6801L23.02 56.5601C23.26 56.5401 23.58 56.8201 23.72 57.1801Z" fill="#AFB6E5" />
  <path d="M75.9798 52.7299C76.1198 53.0899 76.0398 53.4099 75.7898 53.4299L74.3398 53.5499C74.0898 53.5699 73.7798 53.2899 73.6398 52.9299C73.4998 52.5699 73.5798 52.2499 73.8298 52.2299L75.2798 52.1099C75.5198 52.0899 75.8398 52.3699 75.9798 52.7299Z" fill="#AFB6E5" />
  <path d="M23.72 24.1001C23.58 24.3001 23.26 24.2201 23.02 23.9101L21.57 22.1201C21.32 21.8201 21.24 21.4101 21.38 21.2101C21.52 21.0101 21.84 21.0901 22.08 21.4001L23.53 23.1901C23.78 23.4901 23.86 23.9001 23.72 24.1001Z" fill="#AFB6E5" />
  <path d="M75.9798 88.8999C75.8398 89.0999 75.5198 89.0199 75.2798 88.7099L73.8298 86.9199C73.5798 86.6199 73.4998 86.2099 73.6398 86.0099C73.7798 85.8099 74.0998 85.8899 74.3398 86.1999L75.7898 87.9899C76.0398 88.2899 76.1198 88.6999 75.9798 88.8999Z" fill="#AFB6E5" />
  <path d="M34.2697 75.3801C34.5197 75.6801 34.5997 76.0901 34.4597 76.2901L33.6197 77.4701C33.4797 77.6701 33.1597 77.5901 32.9197 77.2801C32.6697 76.9801 32.5897 76.5701 32.7297 76.3701L33.5697 75.1901C33.7097 74.9901 34.0197 75.0701 34.2697 75.3801Z" fill="#AFB6E5" />
  <path d="M64.4396 32.8298C64.6896 33.1298 64.7696 33.5398 64.6296 33.7398L63.7896 34.9198C63.6496 35.1198 63.3296 35.0398 63.0896 34.7298C62.8396 34.4298 62.7596 34.0198 62.8996 33.8198L63.7396 32.6398C63.8796 32.4398 64.1996 32.5198 64.4396 32.8298Z" fill="#AFB6E5" />
  <path d="M49.0605 56.9199L47.2705 55.8899V27.1499L49.0605 28.1799V56.9199Z" fill="url(#paint5_linear_108_12519)" />
  <path d="M48.4797 54.6699L47.9297 55.4499L72.1697 85.4999L72.7197 84.7299L48.4797 54.6699Z" fill="url(#paint6_linear_108_12519)" />
  <path d="M49.0905 55.5902C49.0905 56.1802 48.6705 56.4102 48.1605 56.1202C47.6505 55.8202 47.2305 55.1102 47.2305 54.5202C47.2305 53.9302 47.6505 53.7002 48.1605 53.9902C48.6705 54.2902 49.0905 55.0002 49.0905 55.5902Z" fill="#EB4680" />
  <path d="M55.3001 52.16L54.3201 50.48L50.3701 52.73L50.6201 53.17L26.1201 67.14L26.5901 67.95L51.0901 53.98L51.3401 54.42L55.3001 52.16Z" fill="url(#paint7_linear_108_12519)" />
  <defs>
    <linearGradient id="paint0_linear_108_12519" x1="83.7186" y1="98.9199" x2="30.8748" y2="1.1098" gradientUnits="userSpaceOnUse">
      <stop offset="0.0909" stop-color="#4088AF" />
      <stop offset="0.5" stop-color="#3882AD" />
      <stop offset="0.691" stop-color="#4EB6DD" />
      <stop offset="0.798" stop-color="#58CFF3" />
      <stop offset="1" stop-color="#3888B7" />
    </linearGradient>
    <linearGradient id="paint1_linear_108_12519" x1="67.416" y1="23.359" x2="24.0828" y2="94.6921" gradientUnits="userSpaceOnUse">
      <stop stop-color="#0082C5" />
      <stop offset="0.3301" stop-color="#2D7CB7" />
      <stop offset="0.6313" stop-color="#5277AB" />
      <stop offset="0.6752" stop-color="#5B76A9" />
      <stop offset="0.7464" stop-color="#7375A2" />
      <stop offset="0.8361" stop-color="#9A7397" />
      <stop offset="0.9398" stop-color="#D06F88" />
      <stop offset="1" stop-color="#F36D7E" />
    </linearGradient>
    <linearGradient id="paint2_linear_108_12519" x1="48.1621" y1="73.0868" x2="82.0851" y2="73.0868" gradientUnits="userSpaceOnUse">
      <stop offset="0.0354" stop-color="#F36D7E" />
      <stop offset="0.8429" stop-color="#F36D8D" />
      <stop offset="1" stop-color="#F36D91" />
    </linearGradient>
    <linearGradient id="paint3_linear_108_12519" x1="14.2392" y1="55.8075" x2="72.1226" y2="55.8075" gradientUnits="userSpaceOnUse">
      <stop offset="0.096" stop-color="#A1243E" />
      <stop offset="1" stop-color="#E71D69" />
    </linearGradient>
    <linearGradient id="paint4_linear_108_12519" x1="46.3065" y1="55.0548" x2="50.0168" y2="55.0548" gradientUnits="userSpaceOnUse">
      <stop offset="0.096" stop-color="#A1243E" />
      <stop offset="1" stop-color="#E71D69" />
    </linearGradient>
    <linearGradient id="paint5_linear_108_12519" x1="47.266" y1="42.0347" x2="49.0588" y2="42.0347" gradientUnits="userSpaceOnUse">
      <stop offset="0.096" stop-color="#A1243E" />
      <stop offset="1" stop-color="#E71D69" />
    </linearGradient>
    <linearGradient id="paint6_linear_108_12519" x1="47.931" y1="70.0881" x2="72.7205" y2="70.0881" gradientUnits="userSpaceOnUse">
      <stop offset="0.096" stop-color="#A1243E" />
      <stop offset="1" stop-color="#E71D69" />
    </linearGradient>
    <linearGradient id="paint7_linear_108_12519" x1="26.1231" y1="59.2133" x2="55.2957" y2="59.2133" gradientUnits="userSpaceOnUse">
      <stop offset="0.0354" stop-color="#F36D7E" />
      <stop offset="0.8429" stop-color="#F36D8D" />
      <stop offset="1" stop-color="#F36D91" />
    </linearGradient>
  </defs>
</svg>