<svg width="106" height="99" viewBox="0 0 106 99" fill="none" xmlns="http://www.w3.org/2000/svg">
  <path d="M97.3 98.68L8.17001 42.7C5.95001 41.42 4.15002 37.98 4.15002 35.01L1.04004 36.23C1.04004 4.46998 30.36 -7.26 54.18 6.49L59.24 9.43999C83.06 23.19 104.39 61.12 104.39 92.88C104.39 94.57 103.81 95.74 102.89 96.19C102.2 96.54 98.25 99.24 97.3 98.68Z" fill="url(#paint0_linear_108_12520)" />
  <path d="M96.2102 98.2398L4.01025 45.0098C1.79025 43.7299 -0.00976562 40.2899 -0.00976562 37.3199C-0.00976562 5.55986 26.2002 -4.94015 50.0202 8.80985L55.0802 11.7599C78.9002 25.5098 100.23 63.4399 100.23 95.1999C100.23 98.1599 98.4302 99.5198 96.2102 98.2398Z" fill="url(#paint1_linear_108_12520)" />
  <path d="M7.57997 41.1098C6.07997 40.2398 4.90998 38.1098 4.99998 36.4398C6.42998 10.1098 26.08 -0.0602036 50.1 13.8098C74.13 27.6798 93.77 60.5398 95.2 88.5198C95.29 90.2898 94.12 91.0798 92.62 90.2098L7.57997 41.1098Z" fill="url(#paint2_linear_108_12520)" />
  <path d="M93.7997 89.5498L8.74974 40.4498C7.24974 39.5798 6.07972 37.4498 6.16972 35.7798C6.83972 23.5198 11.4497 14.7698 18.6197 10.3198C10.7897 14.5298 5.70975 23.5398 5.00975 36.4498C4.91975 38.1198 6.08973 40.2498 7.58973 41.1198L92.6397 90.2198C93.6597 90.8098 94.5097 90.6198 94.9297 89.8998C94.5897 89.8898 94.2097 89.7798 93.7997 89.5498Z" fill="#CED3F4" />
  <path d="M69.2204 61.2598L81.9804 58.3898C74.9304 42.8198 63.2904 28.5798 50.1104 20.9598C30.1804 9.44981 13.7504 17.1498 11.4404 37.9698L27.2004 47.0698C29.3704 36.0798 38.8004 32.3098 50.1004 38.8398C58.0104 43.3998 64.9904 51.9298 69.2204 61.2598Z" fill="url(#paint3_linear_108_12520)" />
  <path d="M69.9199 62.8796C71.3799 66.3996 72.4499 69.9996 73.0099 73.5196L88.7699 82.6196C88.0799 75.5596 86.0999 68.2196 83.1399 61.0796L69.9199 62.8796Z" fill="url(#paint4_linear_108_12520)" />
  <path d="M59.2252 81.1454C64.1981 78.2382 64.1486 68.901 59.1145 60.2902C54.0805 51.6794 45.9683 47.0558 40.9954 49.963C36.0225 52.8703 36.0721 62.2075 41.1061 70.8182C46.1401 79.429 54.2523 84.0527 59.2252 81.1454Z" fill="#AFB6E5" />
  <path d="M61.7604 71.5499C61.7604 78.4599 56.8804 81.2499 50.8504 77.7699C44.8304 74.2899 39.9404 65.8699 39.9404 58.9599C39.9404 52.0499 44.8204 49.2599 50.8504 52.7399C56.8704 56.2199 61.7604 64.6399 61.7604 71.5499Z" fill="url(#paint5_linear_108_12520)" />
  <path d="M44.4805 57.4201L81.5105 49.6401L55.7305 76.0001L44.4805 57.4201Z" fill="url(#paint6_linear_108_12520)" />
  <path d="M44.4805 57.4201L81.5105 49.6401L49.4605 67.1001L44.4805 57.4201Z" fill="url(#paint7_linear_108_12520)" />
  <path d="M61.2497 71.8101C61.2497 78.7201 56.3697 81.5101 50.3397 78.0301C44.3197 74.5501 39.4297 66.1301 39.4297 59.2201C39.4297 52.3101 44.3097 49.5201 50.3397 53.0001C56.3597 56.4801 61.2497 64.9001 61.2497 71.8101Z" fill="url(#paint8_linear_108_12520)" />
  <path d="M61.0202 71.8599C61.0202 78.7699 56.1402 81.5599 50.1102 78.08C44.0902 74.6 39.2002 66.18 39.2002 59.27C39.2002 52.36 44.0802 49.57 50.1102 53.05C56.1302 56.53 61.0202 64.9499 61.0202 71.8599Z" fill="url(#paint9_linear_108_12520)" />
  <path d="M56.3399 69.1601C56.3399 73.1101 53.5499 74.7001 50.1099 72.7101C46.6699 70.7201 43.8799 65.9101 43.8799 61.9601C43.8799 58.0101 46.6699 56.4201 50.1099 58.4101C53.5499 60.4001 56.3399 65.2101 56.3399 69.1601Z" fill="url(#paint10_linear_108_12520)" />
  <defs>
    <linearGradient id="paint0_linear_108_12520" x1="33.1303" y1="17.9913" x2="88.9269" y2="115.543" gradientUnits="userSpaceOnUse">
      <stop stop-color="#CDD2F3" />
      <stop offset="0.2525" stop-color="#E5E9FF" />
      <stop offset="0.3114" stop-color="#EFF2FF" />
      <stop offset="0.3737" stop-color="white" />
      <stop offset="0.4884" stop-color="#EBEDF9" />
      <stop offset="0.7215" stop-color="#B9BFE8" />
      <stop offset="0.7626" stop-color="#AFB6E5" />
      <stop offset="0.9091" stop-color="#AFB6E5" />
      <stop offset="1" stop-color="#AFB6E5" />
    </linearGradient>
    <linearGradient id="paint1_linear_108_12520" x1="30.3806" y1="81.1104" x2="80.7138" y2="25.1106" gradientUnits="userSpaceOnUse">
      <stop stop-color="#AFB6E5" />
      <stop offset="0.1449" stop-color="#B6BCE8" />
      <stop offset="0.3485" stop-color="#C8CDF1" />
      <stop offset="0.5808" stop-color="#E5E9FF" />
      <stop offset="0.9546" stop-color="#F5F4FC" />
      <stop offset="1" stop-color="#F7F6FB" />
    </linearGradient>
    <linearGradient id="paint2_linear_108_12520" x1="4.99988" y1="49.0861" x2="95.2179" y2="49.0861" gradientUnits="userSpaceOnUse">
      <stop stop-color="#0082C5" />
      <stop offset="0.3301" stop-color="#2D7CB7" />
      <stop offset="0.6313" stop-color="#5277AB" />
      <stop offset="0.6752" stop-color="#5B76A9" />
      <stop offset="0.7464" stop-color="#7375A2" />
      <stop offset="0.8361" stop-color="#9A7397" />
      <stop offset="0.9398" stop-color="#D06F88" />
      <stop offset="1" stop-color="#F36D7E" />
    </linearGradient>
    <linearGradient id="paint3_linear_108_12520" x1="-25.7057" y1="-15.1295" x2="69.6274" y2="59.5369" gradientUnits="userSpaceOnUse">
      <stop stop-color="#AFB6E5" />
      <stop offset="0.1449" stop-color="#B6BCE8" />
      <stop offset="0.3485" stop-color="#C8CDF1" />
      <stop offset="0.5808" stop-color="#E5E9FF" />
      <stop offset="0.8551" stop-color="#F5F6FF" />
      <stop offset="1" stop-color="white" />
    </linearGradient>
    <linearGradient id="paint4_linear_108_12520" x1="81.6488" y1="82.36" x2="72.9821" y2="42.36" gradientUnits="userSpaceOnUse">
      <stop offset="0.096" stop-color="#A1243E" />
      <stop offset="1" stop-color="#E71D69" />
    </linearGradient>
    <linearGradient id="paint5_linear_108_12520" x1="43.7702" y1="52.5209" x2="58.1813" y2="78.4485" gradientUnits="userSpaceOnUse">
      <stop stop-color="#BCC2EB" />
      <stop offset="0.1919" stop-color="#C6CCF0" />
      <stop offset="0.277" stop-color="#D0D4F0" />
      <stop offset="0.2828" stop-color="#D1D5F0" />
      <stop offset="0.361" stop-color="#BDC3EA" />
      <stop offset="0.4091" stop-color="#AFB6E5" />
      <stop offset="0.9091" stop-color="#AFB6E5" />
      <stop offset="0.9881" stop-color="#BAC0EA" />
      <stop offset="1" stop-color="#BCC2EB" />
    </linearGradient>
    <linearGradient id="paint6_linear_108_12520" x1="97.6272" y1="79.4421" x2="34.718" y2="79.5915" gradientUnits="userSpaceOnUse">
      <stop stop-color="#AFB6E5" />
      <stop offset="0.1449" stop-color="#B6BCE8" />
      <stop offset="0.3485" stop-color="#C8CDF1" />
      <stop offset="0.5808" stop-color="#E5E9FF" />
      <stop offset="0.9546" stop-color="#F5F4FC" />
      <stop offset="1" stop-color="#F7F6FB" />
    </linearGradient>
    <linearGradient id="paint7_linear_108_12520" x1="54.9182" y1="38.9116" x2="66.6194" y2="60.4665" gradientUnits="userSpaceOnUse">
      <stop stop-color="#AFB6E5" />
      <stop offset="0.1449" stop-color="#B6BCE8" />
      <stop offset="0.3485" stop-color="#C8CDF1" />
      <stop offset="0.5808" stop-color="#E5E9FF" />
      <stop offset="0.9546" stop-color="#F5F4FC" />
      <stop offset="1" stop-color="#F7F6FB" />
    </linearGradient>
    <linearGradient id="paint8_linear_108_12520" x1="63.7202" y1="55.288" x2="36.9778" y2="69.346" gradientUnits="userSpaceOnUse">
      <stop stop-color="#BCC2EB" />
      <stop offset="0.1919" stop-color="#C6CCF0" />
      <stop offset="0.277" stop-color="#D0D4F0" />
      <stop offset="0.2828" stop-color="#D1D5F0" />
      <stop offset="0.361" stop-color="#BDC3EA" />
      <stop offset="0.4091" stop-color="#AFB6E5" />
      <stop offset="0.9091" stop-color="#AFB6E5" />
      <stop offset="0.9881" stop-color="#BAC0EA" />
      <stop offset="1" stop-color="#BCC2EB" />
    </linearGradient>
    <linearGradient id="paint9_linear_108_12520" x1="37.0398" y1="86.5652" x2="55.608" y2="56.7268" gradientUnits="userSpaceOnUse">
      <stop stop-color="#AFB6E5" />
      <stop offset="0.1449" stop-color="#B6BCE8" />
      <stop offset="0.3485" stop-color="#C8CDF1" />
      <stop offset="0.5808" stop-color="#E5E9FF" />
      <stop offset="0.9546" stop-color="#F5F4FC" />
      <stop offset="1" stop-color="#F7F6FB" />
    </linearGradient>
    <linearGradient id="paint10_linear_108_12520" x1="53.6793" y1="59.0601" x2="43.3329" y2="77.9054" gradientUnits="userSpaceOnUse">
      <stop stop-color="#AFB6E5" />
      <stop offset="0.1449" stop-color="#B6BCE8" />
      <stop offset="0.3485" stop-color="#C8CDF1" />
      <stop offset="0.5808" stop-color="#E5E9FF" />
      <stop offset="0.9546" stop-color="#F5F4FC" />
      <stop offset="1" stop-color="#F7F6FB" />
    </linearGradient>
  </defs>
</svg>