<svg width="161" height="18" viewBox="0 0 161 18" fill="none" xmlns="http://www.w3.org/2000/svg">
  <path fill-rule="evenodd" clip-rule="evenodd" d="M24.5156 3.06004H33.3356V5.59804H27.5036V8.10004H29.3036C30.1194 8.10004 30.8459 8.20516 31.4816 8.4154C32.1174 8.62492 32.6516 8.91292 33.0836 9.2794C33.5058 9.63251 33.844 10.0752 34.0736 10.5754C34.3033 11.0811 34.42 11.6307 34.4156 12.186C34.4156 12.798 34.3047 13.3683 34.083 13.896C33.8609 14.4241 33.5259 14.8972 33.1016 15.282C32.6696 15.678 32.1354 15.9898 31.4996 16.218C30.8639 16.4463 30.1316 16.56 29.3036 16.56H24.5156V3.06004ZM29.2856 14.076C29.9459 14.076 30.4679 13.914 30.8516 13.59C31.2354 13.266 31.4276 12.798 31.4276 12.186C31.4276 11.6698 31.2419 11.2443 30.8696 10.908C30.4974 10.5718 29.9696 10.404 29.2856 10.404H27.4496V14.076H29.2856ZM35.7836 16.56V15.3L40.3736 3.06004H43.4156L47.9876 15.12V16.56H45.3956L44.3516 13.698H39.2036L38.1776 16.56H35.7836ZM41.7956 6.28204L40.0316 11.25H43.5596L41.7956 6.28204ZM49.7336 3.06004H52.7216V8.37004H58.0136V3.06004H61.0016V16.56H58.0136V10.89H52.7216V16.56H49.7336V3.06004ZM66.9416 16.56H63.9536V3.06004H66.9416V8.85604L71.8196 3.06004H74.1776V4.41004L69.7676 9.54004L74.6816 15.156V16.56H72.0536L66.9416 10.692V16.56ZM81.1976 3.06004H85.5356C86.3276 3.06004 87.0447 3.16516 87.6863 3.3754C88.3285 3.58492 88.8743 3.88228 89.3243 4.26604C89.7722 4.64728 90.1289 5.12409 90.3683 5.6614C90.6145 6.20716 90.7376 6.82204 90.7376 7.50604C90.7376 8.09409 90.6277 8.67696 90.4136 9.22468C90.1968 9.78427 89.8624 10.2908 89.433 10.71C88.9945 11.142 88.4516 11.4898 87.8036 11.754C87.1556 12.0183 86.3996 12.15 85.5356 12.15H84.1856V16.56H81.1976V3.06004ZM85.5176 9.66604C86.2139 9.66604 86.7596 9.47164 87.1556 9.08068C87.5516 8.69116 87.7496 8.17204 87.7496 7.52404C87.7496 6.94804 87.5574 6.47428 87.1736 6.10204C86.7899 5.7298 86.2376 5.54404 85.5176 5.54404H84.1316V9.66604H85.5176ZM92.7716 3.06004H101.25V5.59804H95.7596V8.46004H100.62V10.8H95.7596V14.022H101.25V16.56H92.7716V3.06004ZM108.468 16.83C107.652 16.83 106.947 16.7314 106.352 16.5327C105.758 16.3347 105.264 16.092 104.868 15.804C104.472 15.516 104.166 15.2064 103.95 14.8774C103.734 14.5469 103.602 14.256 103.554 14.004V12.654H105.912C105.935 12.7858 105.992 12.9507 106.083 13.1494C106.173 13.3474 106.313 13.536 106.506 13.716C106.698 13.896 106.946 14.0487 107.252 14.1747C107.559 14.3014 107.933 14.364 108.378 14.364C109.062 14.364 109.584 14.1963 109.944 13.86C110.304 13.5238 110.484 13.086 110.484 12.546C110.484 12.0298 110.313 11.61 109.971 11.286C109.628 10.962 109.067 10.8 108.288 10.8H106.668V8.53204H108.072C108.72 8.53204 109.202 8.36644 109.521 8.03668C109.839 7.70692 109.998 7.2958 109.998 6.80404C109.998 6.3238 109.821 5.94292 109.466 5.6614C109.113 5.37916 108.684 5.23804 108.18 5.23804C107.807 5.23804 107.493 5.29204 107.234 5.40004C107.004 5.4905 106.793 5.625 106.614 5.79604C106.457 5.95228 106.34 6.12004 106.263 6.30004C106.185 6.48004 106.14 6.64204 106.128 6.78604H103.77V5.43604C103.818 5.2078 103.935 4.9414 104.121 4.63468C104.307 4.32868 104.58 4.0414 104.94 3.77068C105.3 3.50068 105.755 3.27028 106.308 3.07804C106.86 2.8858 107.532 2.79004 108.324 2.79004C108.995 2.79004 109.61 2.87428 110.169 3.04204C110.727 3.2098 111.207 3.45244 111.609 3.7714C112.011 4.08892 112.323 4.47916 112.545 4.94068C112.767 5.40292 112.878 5.9278 112.878 6.51604C112.878 7.16404 112.71 7.7458 112.374 8.26204C112.037 8.77828 111.564 9.16204 110.952 9.41404C111.72 9.6178 112.317 9.99868 112.743 10.5574C113.169 11.1154 113.382 11.7958 113.382 12.6C113.382 13.2243 113.274 13.7967 113.058 14.3187C112.847 14.8332 112.521 15.2923 112.104 15.66C111.684 16.0323 111.168 16.3203 110.556 16.524C109.944 16.7278 109.247 16.83 108.468 16.83ZM126.45 16.83C125.573 16.83 124.77 16.6832 124.038 16.3887C123.324 16.1063 122.67 15.691 122.112 15.1647C121.55 14.6285 121.095 13.9902 120.771 13.284C120.422 12.5264 120.194 11.7185 120.096 10.89H118.602V16.56H115.614V3.06004H118.602V8.37004H120.15C120.271 7.58712 120.514 6.82797 120.87 6.12004C121.203 5.4559 121.654 4.8581 122.202 4.35604C122.751 3.85806 123.39 3.46733 124.083 3.20404C124.797 2.92828 125.586 2.79004 126.45 2.79004C127.434 2.79004 128.322 2.96428 129.114 3.31204C129.886 3.64591 130.577 4.14334 131.139 4.77004C131.697 5.39428 132.125 6.12868 132.426 6.9754C132.726 7.8214 132.876 8.74804 132.876 9.75604C132.876 10.7763 132.726 11.718 132.426 12.582C132.125 13.446 131.697 14.1927 131.138 14.8227C130.578 15.4547 129.887 15.9582 129.114 16.2987C128.322 16.6529 127.434 16.83 126.45 16.83ZM126.45 14.292C126.99 14.292 127.476 14.1783 127.908 13.95C128.338 13.7229 128.711 13.3994 128.996 13.0047C129.291 12.6029 129.515 12.1234 129.672 11.5647C129.832 10.9753 129.91 10.3668 129.906 9.75604C129.906 9.12028 129.828 8.53204 129.672 7.99204C129.515 7.45204 129.288 6.98404 128.988 6.58804C128.687 6.19204 128.325 5.88244 127.898 5.6614C127.473 5.43892 126.99 5.32804 126.45 5.32804C125.91 5.32804 125.427 5.43892 125.001 5.6614C124.575 5.88349 124.205 6.20052 123.921 6.58804C123.627 6.98404 123.402 7.45204 123.246 7.99204C123.085 8.5661 123.006 9.15996 123.012 9.75604C123.012 10.404 123.089 11.0067 123.246 11.5647C123.402 12.1234 123.627 12.6029 123.921 13.0047C124.215 13.4072 124.575 13.7218 125.001 13.95C125.427 14.1783 125.91 14.292 126.45 14.292ZM137.916 7.34404V16.56H135.108V3.06004H138.78L142.056 9.93604L145.26 3.06004H148.914V16.56H145.944V7.34404L142.92 13.698H140.922L137.916 7.34404ZM151.866 3.06004H160.344V5.59804H154.854V8.46004H159.714V10.8H154.854V14.022H160.344V16.56H151.866V3.06004Z" fill="#292929" />
  <path d="M5.99976 5.99976V0H15.12C15.8838 0 16.6164 0.303428 17.1565 0.843533C17.6966 1.38364 18 2.11618 18 2.88V12.0002H12.0002V18H2.88C2.11618 18 1.38364 17.6966 0.843533 17.1565C0.303428 16.6164 0 15.8838 0 15.12V5.99976H5.99976ZM5.99976 5.99976V12.0002H12.0002V5.99976H5.99976Z" fill="#007DB6" />
</svg>