<svg width="264" height="230" viewBox="0 0 264 230" fill="none" xmlns="http://www.w3.org/2000/svg">
  <path d="M229.619 186.654L229.514 185.785C227.117 167.036 218.638 152.737 218.638 135.146V90.0632L188.644 72.7358L172.502 82.3475C172.502 82.3475 194.701 148.839 192.226 165.034C192.226 171.117 196.544 178.57 201.837 181.624L202.101 181.782L204.892 205.377L226.064 193.132C228.25 192.395 229.619 190.104 229.619 186.654Z" fill="url(#paint0_linear_108_12566)" />
  <path d="M196.598 205.666L178.428 195.185C173.109 192.131 168.816 184.678 168.816 178.595C171.292 162.4 172.503 145.284 172.503 127.456V82.3472L202.497 99.6745V144.757C202.497 162.321 203.708 180.57 206.078 199.32L206.183 200.189C206.21 206.272 201.891 208.721 196.598 205.666Z" fill="url(#paint1_linear_108_12566)" />
  <path d="M206.894 198.899C204.498 180.15 203.313 161.927 203.313 144.337V99.2541L173.319 81.9268V83.4541L201.733 99.8598V144.942C201.733 162.507 202.944 180.756 205.314 199.505L205.42 200.374C205.42 203.376 204.366 205.483 202.681 206.483C205.288 206.009 207 203.613 207 199.768L206.894 198.899Z" fill="url(#paint2_radial_108_12566)" />
  <path d="M192.489 142.281L189.935 163.085L195.517 159.872V140.464L192.489 142.281Z" fill="url(#paint3_linear_108_12566)" />
  <path d="M192.518 142.282L189.937 163.085L178.982 156.897L181.563 135.988L192.518 142.282Z" fill="url(#paint4_linear_108_12566)" />
  <path d="M181.562 135.988L192.516 142.282L195.518 140.465L184.537 134.197L181.562 135.988Z" fill="url(#paint5_linear_108_12566)" />
  <path d="M196.598 205.666L178.428 195.185C173.109 192.131 168.816 184.678 168.816 178.595C171.292 162.4 172.503 145.284 172.503 127.456V82.3472L202.497 99.6745V144.757C202.497 162.321 203.708 180.57 206.078 199.32L206.183 200.189C206.21 206.272 201.891 208.721 196.598 205.666Z" fill="url(#paint6_radial_108_12566)" />
  <path d="M263.192 62.8344C263.192 73.1834 259.637 80.5041 253.818 84.0327C253.633 84.1381 223.534 101.887 223.35 101.966C217.32 105.336 221.164 97.6734 212 92.4067C193.567 81.768 178.61 55.9877 178.61 34.8157C178.61 24.3614 168.945 24.256 174.87 20.78C175.028 20.6747 206.312 2.76803 206.47 2.6627C212.474 -0.602634 220.717 0.00306177 229.775 5.2434C248.235 15.8821 263.192 41.6887 263.192 62.8344Z" fill="url(#paint7_linear_108_12566)" />
  <path d="M231.884 81.0571C231.884 102.229 216.927 110.735 198.493 100.096C180.06 89.4574 165.103 63.6771 165.103 42.5051C165.103 21.3331 180.06 12.8275 198.493 23.4661C216.953 34.1048 231.884 59.8851 231.884 81.0571Z" fill="url(#paint8_linear_108_12566)" />
  <path d="M226.723 83.2163C226.723 93.2493 223.247 100.359 217.611 103.809C217.585 103.835 212.292 106.89 204.787 111.235C173.529 129.379 161.837 161.558 144.405 201.269C144.352 201.374 144.326 201.453 144.326 201.453C132.449 208.089 37.149 48.3509 48.8147 41.4779C48.8147 41.4779 48.841 41.4779 48.8673 41.4779C90.6057 44.6906 124.102 52.0376 154.359 34.6576C164.181 29.0223 171.581 24.7826 171.633 24.7563C177.479 21.5963 185.458 22.1756 194.28 27.2579C212.187 37.6069 226.723 62.6499 226.723 83.2163Z" fill="url(#paint9_linear_108_12566)" />
  <g opacity="0.4">
    <path d="M248.158 75.3683C242.048 81.6356 236.018 86.7179 231.12 89.9043C231.094 89.9306 226.591 92.8273 220.244 96.9089C193.727 113.973 176.03 126.85 151.013 184.783C150.961 184.888 139.638 165.639 139.638 165.639C129.71 171.985 111.856 125.323 171.765 91.2472L173.529 92.3532C189.145 87.6396 197.045 82.7152 222.588 66.3096C230.883 60.9902 237.15 56.9613 237.177 56.9613C241.996 53.9066 253.635 55.3023 254.925 56.8559C257.532 60.0159 260.64 62.5439 248.158 75.3683Z" fill="url(#paint10_radial_108_12566)" />
  </g>
  <path d="M153.568 169.748C153.568 191.341 146.115 206.641 134.002 214.041C133.633 214.251 122.363 221.414 121.994 221.625C109.38 228.682 117.438 212.671 98.3202 201.638C59.7945 179.386 28.5632 125.534 28.5632 81.3207C28.5632 59.4641 8.36553 59.2797 20.7422 51.9854C21.0845 51.7747 34.7779 44.2434 35.1465 44.059C47.7075 37.265 64.9032 38.5027 83.8368 49.4311C122.336 71.6827 153.568 125.561 153.568 169.748Z" fill="url(#paint11_linear_108_12566)" />
  <path d="M139.795 177.885C139.795 222.072 108.564 239.9 70.0647 217.648C31.539 195.397 0.333984 141.545 0.333984 97.3576C0.333984 53.1703 31.5653 35.3426 70.0647 57.5943C108.564 79.8459 139.795 133.698 139.795 177.885Z" fill="url(#paint12_linear_108_12566)" />
  <path d="M135.265 175.277C135.265 216.594 106.061 233.237 70.0637 212.46C34.066 191.657 4.8623 141.307 4.8623 99.9903C4.8623 58.6733 34.066 42.0306 70.0637 62.8076C106.061 83.5846 135.265 133.96 135.265 175.277Z" fill="url(#paint13_linear_108_12566)" />
  <path d="M82.888 207.063C46.8903 186.286 17.6866 135.91 17.6866 94.5934C17.6866 75.5544 23.9013 61.7557 34.1186 54.4351C16.5016 57.6477 4.8623 73.8954 4.8623 99.9654C4.8623 141.282 34.066 191.632 70.0637 212.435C89.4713 223.653 106.904 223.943 118.833 215.411C108.51 217.307 96.16 214.726 82.888 207.063Z" fill="url(#paint14_linear_108_12566)" />
  <path d="M135.265 175.277C135.265 216.594 106.061 233.237 70.0637 212.46C34.066 191.657 4.8623 141.307 4.8623 99.9903C4.8623 58.6733 34.066 42.0306 70.0637 62.8076C106.061 83.5846 135.265 133.96 135.265 175.277Z" fill="url(#paint15_radial_108_12566)" />
  <path d="M106.799 96.5669C102.876 99.7796 76.2262 121.584 76.1736 121.61C74.2776 122.716 77.385 122.742 77.385 126.087C77.385 132.854 82.1776 141.097 88.0499 144.494C90.9729 146.179 89.7353 148.628 91.6839 147.548C91.7366 147.522 119.492 136.91 127.05 134.013C122.204 120.899 115.226 108.022 106.799 96.5669Z" fill="url(#paint16_linear_108_12566)" />
  <path d="M94.3964 140.912C94.3964 147.68 89.6038 150.392 83.7315 146.995C77.8328 143.598 73.0664 135.356 73.0664 128.588C73.0664 121.821 77.8591 119.108 83.7315 122.505C89.6038 125.902 94.3964 134.145 94.3964 140.912Z" fill="url(#paint17_linear_108_12566)" />
  <path d="M91.0524 138.963C91.0524 143.624 87.7608 145.494 83.7054 143.15C79.6501 140.807 76.3584 135.145 76.3584 130.51C76.3584 125.849 79.6501 123.98 83.7054 126.323C87.7608 128.667 91.0524 134.329 91.0524 138.963Z" fill="url(#paint18_linear_108_12566)" />
  <path d="M84.2309 122.241C81.4132 120.609 78.8325 120.398 76.9365 121.346C78.7272 120.846 80.9129 121.214 83.3092 122.61C89.2079 126.007 93.9742 134.249 93.9742 141.017C93.9742 144.546 92.6839 146.968 90.6035 147.995C93.2105 147.258 94.8959 144.677 94.8959 140.648C94.8959 133.881 90.1296 125.638 84.2309 122.241Z" fill="url(#paint19_radial_108_12566)" />
  <defs>
    <linearGradient id="paint0_linear_108_12566" x1="234.529" y1="187.746" x2="187.925" y2="105.826" gradientUnits="userSpaceOnUse">
      <stop stop-color="#CDD2F3" />
      <stop offset="0.0404" stop-color="white" />
      <stop offset="0.1668" stop-color="#EBEEFF" />
      <stop offset="0.202" stop-color="#E5E9FF" />
      <stop offset="0.3468" stop-color="#DBDFFA" />
      <stop offset="0.5933" stop-color="#C0C6ED" />
      <stop offset="0.7222" stop-color="#AFB6E5" />
      <stop offset="0.9091" stop-color="#AFB6E5" />
      <stop offset="1" stop-color="#AFB6E5" />
    </linearGradient>
    <linearGradient id="paint1_linear_108_12566" x1="214.266" y1="188.255" x2="165.397" y2="108.484" gradientUnits="userSpaceOnUse">
      <stop stop-color="#E5E9FF" />
      <stop offset="0.2291" stop-color="#DBDFFA" />
      <stop offset="0.6192" stop-color="#C0C6ED" />
      <stop offset="0.8232" stop-color="#AFB6E5" />
    </linearGradient>
    <radialGradient id="paint2_radial_108_12566" cx="0" cy="0" r="1" gradientUnits="userSpaceOnUse" gradientTransform="translate(231.612 165.46) scale(43.4637 43.4637)">
      <stop offset="1" />
    </radialGradient>
    <linearGradient id="paint3_linear_108_12566" x1="189.503" y1="152.743" x2="211.292" y2="146.218" gradientUnits="userSpaceOnUse">
      <stop offset="0.0354" stop-color="#5277AB" />
      <stop offset="0.3726" stop-color="#5886BA" />
      <stop offset="1" stop-color="#66ADDE" />
    </linearGradient>
    <linearGradient id="paint4_linear_108_12566" x1="160.115" y1="155.291" x2="212.501" y2="143.547" gradientUnits="userSpaceOnUse">
      <stop offset="0.0354" stop-color="#5277AB" />
      <stop offset="0.3726" stop-color="#5886BA" />
      <stop offset="1" stop-color="#66ADDE" />
    </linearGradient>
    <linearGradient id="paint5_linear_108_12566" x1="191.818" y1="131.975" x2="188.061" y2="139.134" gradientUnits="userSpaceOnUse">
      <stop offset="0.0354" stop-color="#5277AB" />
      <stop offset="0.3726" stop-color="#5886BA" />
      <stop offset="1" stop-color="#66ADDE" />
    </linearGradient>
    <radialGradient id="paint6_radial_108_12566" cx="0" cy="0" r="1" gradientUnits="userSpaceOnUse" gradientTransform="translate(184.217 102.084) scale(46.4852 46.4852)">
      <stop stop-color="#AFB6E5" />
      <stop offset="1" stop-color="white" />
    </radialGradient>
    <linearGradient id="paint7_linear_108_12566" x1="197.182" y1="7.71766" x2="244.524" y2="89.7159" gradientUnits="userSpaceOnUse">
      <stop offset="0.0253" stop-color="#588FB0" />
      <stop offset="0.1702" stop-color="#5F9EC7" />
      <stop offset="0.298" stop-color="#66ADDE" />
      <stop offset="0.6414" stop-color="#5277AB" />
      <stop offset="0.8838" stop-color="#588FB0" />
      <stop offset="0.9747" stop-color="#5277AB" />
    </linearGradient>
    <linearGradient id="paint8_linear_108_12566" x1="106.013" y1="82.506" x2="295.1" y2="40.1188" gradientUnits="userSpaceOnUse">
      <stop offset="0.0354" stop-color="#5277AB" />
      <stop offset="0.3726" stop-color="#5886BA" />
      <stop offset="1" stop-color="#66ADDE" />
    </linearGradient>
    <linearGradient id="paint9_linear_108_12566" x1="117.981" y1="29.3024" x2="187.081" y2="148.988" gradientUnits="userSpaceOnUse">
      <stop stop-color="#CDD2F3" />
      <stop offset="0.202" stop-color="#E5E9FF" />
      <stop offset="0.2756" stop-color="#EFF2FF" />
      <stop offset="0.3535" stop-color="white" />
      <stop offset="0.4622" stop-color="#EBEDF9" />
      <stop offset="0.6832" stop-color="#B9BFE8" />
      <stop offset="0.7222" stop-color="#AFB6E5" />
      <stop offset="0.9091" stop-color="#AFB6E5" />
      <stop offset="1" stop-color="#AFB6E5" />
    </linearGradient>
    <radialGradient id="paint10_radial_108_12566" cx="0" cy="0" r="1" gradientUnits="userSpaceOnUse" gradientTransform="translate(166.729 130.997) rotate(-20.3416) scale(65.4515 46.3264)">
      <stop stop-color="#5277AB" />
      <stop offset="0.0967" stop-color="#42608A" />
      <stop offset="0.2406" stop-color="#2E4360" />
      <stop offset="0.3876" stop-color="#1E2B3E" />
      <stop offset="0.5359" stop-color="#111823" />
      <stop offset="0.686" stop-color="#070B0F" />
      <stop offset="0.8392" stop-color="#020304" />
      <stop offset="1" />
    </radialGradient>
    <linearGradient id="paint11_linear_108_12566" x1="41.1489" y1="39.0836" x2="141.168" y2="212.322" gradientUnits="userSpaceOnUse">
      <stop offset="0.0253" stop-color="#588FB0" />
      <stop offset="0.1702" stop-color="#5F9EC7" />
      <stop offset="0.298" stop-color="#66ADDE" />
      <stop offset="0.6414" stop-color="#5277AB" />
      <stop offset="0.8838" stop-color="#588FB0" />
      <stop offset="0.9747" stop-color="#5277AB" />
    </linearGradient>
    <linearGradient id="paint12_linear_108_12566" x1="-123.14" y1="180.934" x2="271.824" y2="92.3959" gradientUnits="userSpaceOnUse">
      <stop offset="0.0354" stop-color="#5277AB" />
      <stop offset="0.3726" stop-color="#5886BA" />
      <stop offset="1" stop-color="#66ADDE" />
    </linearGradient>
    <linearGradient id="paint13_linear_108_12566" x1="114.461" y1="214.54" x2="23.1623" y2="56.4058" gradientUnits="userSpaceOnUse">
      <stop stop-color="#CDD2F3" />
      <stop offset="0.202" stop-color="#E5E9FF" />
      <stop offset="0.2756" stop-color="#EFF2FF" />
      <stop offset="0.3535" stop-color="white" />
      <stop offset="0.4622" stop-color="#EBEDF9" />
      <stop offset="0.6832" stop-color="#B9BFE8" />
      <stop offset="0.7222" stop-color="#AFB6E5" />
      <stop offset="0.9091" stop-color="#AFB6E5" />
      <stop offset="1" stop-color="#AFB6E5" />
    </linearGradient>
    <linearGradient id="paint14_linear_108_12566" x1="97.2091" y1="227.279" x2="6.37698" y2="69.9536" gradientUnits="userSpaceOnUse">
      <stop offset="0.0253" stop-color="#588FB0" />
      <stop offset="0.1702" stop-color="#5F9EC7" />
      <stop offset="0.298" stop-color="#66ADDE" />
      <stop offset="0.6414" stop-color="#5277AB" />
      <stop offset="0.8838" stop-color="#588FB0" />
      <stop offset="0.9747" stop-color="#5277AB" />
    </linearGradient>
    <radialGradient id="paint15_radial_108_12566" cx="0" cy="0" r="1" gradientUnits="userSpaceOnUse" gradientTransform="translate(136.094 104.606) scale(107.915 107.915)">
      <stop stop-color="#AFB6E5" />
      <stop offset="1" stop-color="white" />
    </radialGradient>
    <linearGradient id="paint16_linear_108_12566" x1="88.9155" y1="106.768" x2="109.304" y2="143.541" gradientUnits="userSpaceOnUse">
      <stop offset="0.1212" stop-color="#AA1C5A" />
      <stop offset="0.3535" stop-color="#9C3073" />
      <stop offset="0.6023" stop-color="#922163" />
      <stop offset="1" stop-color="#7C0042" />
    </linearGradient>
    <linearGradient id="paint17_linear_108_12566" x1="73.0356" y1="134.738" x2="94.3862" y2="134.738" gradientUnits="userSpaceOnUse">
      <stop offset="0.00505051" stop-color="#273B60" />
      <stop offset="0.0714" stop-color="#37375F" />
      <stop offset="0.2008" stop-color="#602E5D" />
      <stop offset="0.379" stop-color="#A21E5A" />
      <stop offset="0.399" stop-color="#AA1C5A" />
      <stop offset="0.8712" stop-color="#870647" />
      <stop offset="1" stop-color="#7C0042" />
    </linearGradient>
    <linearGradient id="paint18_linear_108_12566" x1="76.376" y1="134.738" x2="91.0461" y2="134.738" gradientUnits="userSpaceOnUse">
      <stop offset="0.00505051" stop-color="#BB5987" />
      <stop offset="0.0529" stop-color="#C45C86" />
      <stop offset="0.2205" stop-color="#DE6581" />
      <stop offset="0.3713" stop-color="#ED6B7F" />
      <stop offset="0.4899" stop-color="#F36D7E" />
      <stop offset="1" stop-color="#F36D91" />
    </linearGradient>
    <radialGradient id="paint19_radial_108_12566" cx="0" cy="0" r="1" gradientUnits="userSpaceOnUse" gradientTransform="translate(85.9078 134.377) scale(11.5332 11.5332)">
      <stop stop-color="white" />
      <stop offset="1" />
    </radialGradient>
  </defs>
</svg>