<svg width="20" height="20" viewBox="0 0 20 20" fill="none" xmlns="http://www.w3.org/2000/svg">
  <g clip-path="url(#clip0_4201_131)">
    <path fill-rule="evenodd" clip-rule="evenodd" d="M9.99967 2.49992C5.85754 2.49992 2.49967 5.85778 2.49967 9.99992C2.49967 14.1421 5.85754 17.4999 9.99967 17.4999C14.1418 17.4999 17.4997 14.1421 17.4997 9.99992C17.4997 5.85778 14.1418 2.49992 9.99967 2.49992ZM0.833008 9.99992C0.833008 4.93731 4.93706 0.833252 9.99967 0.833252C15.0623 0.833252 19.1663 4.93731 19.1663 9.99992C19.1663 15.0625 15.0623 19.1666 9.99967 19.1666C4.93706 19.1666 0.833008 15.0625 0.833008 9.99992Z" fill="#515151" />
    <path fill-rule="evenodd" clip-rule="evenodd" d="M5.83301 10.0001C5.83301 9.53984 6.2061 9.16675 6.66634 9.16675H13.333C13.7932 9.16675 14.1663 9.53984 14.1663 10.0001C14.1663 10.4603 13.7932 10.8334 13.333 10.8334H6.66634C6.2061 10.8334 5.83301 10.4603 5.83301 10.0001Z" fill="#515151" />
  </g>
  <defs>
    <clipPath id="clip0_4201_131">
      <rect width="20" height="20" fill="white" />
    </clipPath>
  </defs>
</svg>