<svg width="20" height="21" viewBox="0 0 20 21" fill="none" xmlns="http://www.w3.org/2000/svg">
  <path fill-rule="evenodd" clip-rule="evenodd" d="M9.99967 2.99992C5.85754 2.99992 2.49967 6.35778 2.49967 10.4999C2.49967 14.6421 5.85754 17.9999 9.99967 17.9999C14.1418 17.9999 17.4997 14.6421 17.4997 10.4999C17.4997 6.35778 14.1418 2.99992 9.99967 2.99992ZM0.833008 10.4999C0.833008 5.43731 4.93706 1.33325 9.99967 1.33325C15.0623 1.33325 19.1663 5.43731 19.1663 10.4999C19.1663 15.5625 15.0623 19.6666 9.99967 19.6666C4.93706 19.6666 0.833008 15.5625 0.833008 10.4999Z" fill="black" />
  <path fill-rule="evenodd" clip-rule="evenodd" d="M10.0003 6.33325C10.4606 6.33325 10.8337 6.70635 10.8337 7.16659V13.8333C10.8337 14.2935 10.4606 14.6666 10.0003 14.6666C9.54009 14.6666 9.16699 14.2935 9.16699 13.8333V7.16659C9.16699 6.70635 9.54009 6.33325 10.0003 6.33325Z" fill="black" />
  <path fill-rule="evenodd" clip-rule="evenodd" d="M5.83301 10.5001C5.83301 10.0398 6.2061 9.66675 6.66634 9.66675H13.333C13.7932 9.66675 14.1663 10.0398 14.1663 10.5001C14.1663 10.9603 13.7932 11.3334 13.333 11.3334H6.66634C6.2061 11.3334 5.83301 10.9603 5.83301 10.5001Z" fill="black" />
</svg>