<svg width="532" height="453" viewBox="0 0 532 453" fill="none" xmlns="http://www.w3.org/2000/svg">
  <g clip-path="url(#clip0_108_12459)">
    <path d="M194.767 179.221C202.63 171.496 220.292 169.195 233.342 174.421C243.832 178.629 247.87 187.735 242.141 194.276C238.891 197.991 233.49 200.588 227.318 201.87C224.396 202.478 224.068 204.796 226.743 205.716L279.666 223.862L311.068 193.027C313.104 191.039 318.307 191.334 319.571 193.537C321.607 197.104 325.973 200.259 332.277 202.166C344.096 205.733 358.886 203.432 365.944 196.939C373.692 189.806 369.638 180.404 357.129 176.114C351.515 174.191 345.163 173.633 339.237 174.257C335.281 174.684 332.293 172.186 334.329 170.181L365.731 139.346L229.78 92.7332C223.838 90.6951 216.189 91.8128 212.709 95.248L132.931 173.55L185.919 191.712C188.562 192.616 191.894 191.351 191.402 189.609C190.433 186.141 191.451 182.459 194.767 179.221Z" fill="url(#paint0_linear_108_12459)" />
    <path d="M339.237 174.241C345.162 173.6 351.515 174.159 357.129 176.098C359.411 176.887 361.397 177.84 363.104 178.909L365.747 176.328V139.347L334.345 170.181C332.293 172.17 335.28 174.668 339.237 174.241Z" fill="url(#paint1_linear_108_12459)" />
    <path d="M369.687 190.726C369.26 192.863 368.062 194.967 365.945 196.906C358.886 203.398 344.112 205.7 332.277 202.133C325.957 200.226 321.607 197.07 319.572 193.504C318.308 191.301 313.088 190.989 311.069 192.994L279.666 223.829L226.744 205.683C224.052 204.763 224.396 202.445 227.318 201.837C233.507 200.555 238.907 197.958 242.141 194.243C247.87 187.702 243.832 178.596 233.343 174.388C220.293 169.162 202.646 171.479 194.767 179.188C191.451 182.442 190.433 186.107 191.418 189.576C191.911 191.334 188.595 192.583 185.936 191.679L132.947 173.517V210.499L185.936 228.661C188.578 229.565 191.911 228.299 191.418 226.557C190.433 223.089 191.451 219.424 194.767 216.169C201.054 210.006 213.595 207.294 225.037 209.118V240.314C224.692 241.169 225.217 242.139 226.744 242.648L279.666 260.794L311.069 229.959C313.104 227.971 318.308 228.267 319.572 230.469C321.607 234.036 325.974 237.191 332.277 239.098C344.096 242.665 358.886 240.364 365.945 233.871C369.195 230.88 370.344 227.494 369.687 224.24V190.726Z" fill="url(#paint2_linear_108_12459)" />
    <path d="M315.796 228.711V191.729C314.023 191.581 312.119 191.992 311.068 193.027L279.666 223.862V260.843L311.068 230.009C312.119 228.957 314.023 228.563 315.796 228.711Z" fill="url(#paint3_linear_108_12459)" />
    <path d="M312.202 229.27C312.136 229.302 312.054 229.319 311.988 229.352C312.054 229.319 312.136 229.286 312.202 229.27Z" fill="url(#paint4_linear_108_12459)" />
    <path d="M313.267 228.891C313.235 228.907 313.202 228.907 313.153 228.907C313.186 228.907 313.218 228.907 313.267 228.891Z" fill="url(#paint5_linear_108_12459)" />
    <path d="M226.744 205.7C224.052 204.779 224.396 202.462 227.318 201.854C233.507 200.572 238.907 197.975 242.141 194.26C247.87 187.718 243.832 178.613 233.343 174.405C220.292 169.178 202.646 171.496 194.767 179.204C191.451 182.459 190.433 186.124 191.418 189.592C191.911 191.351 188.595 192.6 185.936 191.696L132.947 173.534V210.516L185.936 228.678C188.578 229.582 191.911 228.316 191.418 226.574C190.433 223.106 191.451 219.44 194.767 216.186C201.054 210.022 213.595 207.31 225.036 209.135V240.331C224.692 241.186 225.217 242.155 226.744 242.665L279.666 260.81V223.829L226.744 205.7Z" fill="url(#paint6_linear_108_12459)" />
    <path d="M369.687 224.272V190.726C369.261 192.863 368.062 194.967 365.945 196.906C358.886 203.398 344.113 205.7 332.277 202.133C325.957 200.226 321.607 197.07 319.572 193.504C318.653 191.893 315.616 191.301 313.252 191.893C314.056 191.696 314.943 191.63 315.78 191.712V228.694C317.421 228.825 318.948 229.433 319.555 230.502C321.591 234.069 325.957 237.224 332.261 239.131C344.08 242.698 358.87 240.396 365.928 233.904C369.195 230.913 370.344 227.527 369.687 224.272Z" fill="url(#paint7_linear_108_12459)" />
    <path d="M313.153 191.926C312.809 192.008 312.497 192.14 312.201 192.271C312.497 192.14 312.809 192.025 313.153 191.926Z" fill="url(#paint8_linear_108_12459)" />
    <path d="M182.094 190.397L132.947 173.55L182.094 190.397Z" fill="url(#paint9_linear_108_12459)" />
    <path d="M187.15 228.941C187.446 228.974 187.741 228.99 188.037 228.99C187.741 229.007 187.446 228.974 187.15 228.941Z" fill="url(#paint10_linear_108_12459)" />
    <path d="M189.941 228.596C189.843 228.628 189.875 228.628 189.941 228.596V228.596Z" fill="url(#paint11_linear_108_12459)" />
    <path d="M224.971 240.594C224.938 240.759 224.938 240.923 224.971 241.071V240.594Z" fill="url(#paint12_linear_108_12459)" />
    <path d="M224.971 204.221C224.692 203.267 225.496 202.232 227.318 201.87C233.507 200.588 238.907 197.991 242.141 194.277C247.87 187.735 243.832 178.629 233.342 174.422C220.292 169.195 202.646 171.512 194.767 179.221C191.451 182.475 190.433 186.141 191.418 189.609C191.664 190.463 190.991 191.187 189.957 191.614V228.579C190.269 228.415 191.713 227.609 191.418 226.59C190.433 223.122 191.451 219.457 194.767 216.203C201.037 210.039 213.546 207.343 224.971 209.151V204.221Z" fill="url(#paint13_linear_108_12459)" />
    <path d="M140.005 291.875C128.974 285.498 129.401 275.028 141.318 269.062C150.905 264.263 167.139 264.328 176.71 269.193C182.143 271.955 185.18 275.636 185.836 279.433C186.148 281.225 189.94 281.997 192.14 280.732L235.394 255.732L191.368 230.289C188.528 228.645 190.285 225.802 194.29 225.654C200.774 225.424 207.111 223.78 211.838 220.739C220.686 215.019 220.423 206.16 211.247 200.556C201.185 194.408 184.441 194.26 174.214 200.177C169.618 202.824 167.139 206.242 166.762 209.727C166.516 212.044 161.608 213.08 158.751 211.436L114.742 185.977L3.62772 250.209C-1.23117 253.02 -1.19834 257.589 3.67697 260.416L115.481 325.06L158.784 300.028C160.951 298.779 159.638 296.593 156.585 296.428C150.544 296.067 144.651 294.555 140.005 291.875Z" fill="url(#paint14_linear_108_12459)" />
    <path d="M211.838 220.723C207.11 223.764 200.774 225.407 194.29 225.637C190.285 225.785 188.512 228.629 191.368 230.272L218.158 245.755V212.34C217.649 215.365 215.564 218.323 211.838 220.723Z" fill="url(#paint15_linear_108_12459)" />
    <path d="M192.14 280.732C189.94 281.997 186.148 281.225 185.837 279.433C185.18 275.636 182.143 271.955 176.71 269.193C167.123 264.312 150.889 264.262 141.319 269.062C129.401 275.028 128.974 285.514 140.005 291.875C144.651 294.554 150.544 296.067 156.601 296.395C158.472 296.494 159.687 297.365 159.851 298.302H159.868V298.335C159.868 298.368 159.868 298.401 159.868 298.433V302.493C166.04 302.608 172.146 303.841 176.743 306.175C182.176 308.936 185.213 312.618 185.869 316.415C186.181 318.206 189.973 318.979 192.173 317.713L233.605 293.765L235.427 293.387V255.732L192.14 280.732Z" fill="url(#paint16_linear_108_12459)" />
    <path d="M3.67712 260.4C1.2805 259.019 0.0493605 257.211 0.00011489 255.387V291.596L0.0493605 291.579C-0.295359 293.65 0.919366 295.804 3.67712 297.398L115.481 362.042V325.06L3.67712 260.4Z" fill="url(#paint17_linear_108_12459)" />
    <path d="M158.8 299.995L115.497 325.027V362.009L158.8 336.976C159.473 336.582 159.785 336.105 159.835 335.628H159.851V335.415C159.851 335.382 159.851 335.349 159.851 335.316V302.493V298.433C159.884 298.992 159.572 299.551 158.8 299.995Z" fill="url(#paint18_linear_108_12459)" />
    <path d="M158.8 299.995L115.497 325.027V362.009L158.8 336.976C159.473 336.582 159.785 336.105 159.835 335.628H159.851V335.415C159.851 335.382 159.851 335.349 159.851 335.316V302.493V298.433C159.884 298.992 159.572 299.551 158.8 299.995Z" fill="url(#paint19_linear_108_12459)" />
    <path d="M391.929 215.266C402.96 221.643 402.533 232.113 390.616 238.079C381.029 242.879 364.794 242.813 355.224 237.948C349.791 235.186 346.754 231.505 346.098 227.708C345.786 225.916 341.994 225.144 339.794 226.41L296.54 251.409L340.566 276.852C343.405 278.496 341.649 281.34 337.644 281.487C331.16 281.718 324.823 283.361 320.096 286.402C311.248 292.122 311.511 300.981 320.687 306.586C330.749 312.733 347.493 312.881 357.719 306.964C362.316 304.317 364.794 300.899 365.172 297.414C365.418 295.097 370.326 294.061 373.183 295.705L417.208 321.148L528.323 256.915C533.181 254.105 533.149 249.535 528.273 246.708L416.469 182.064L373.166 207.097C370.999 208.346 372.313 210.532 375.366 210.696C381.39 211.074 387.283 212.587 391.929 215.266Z" fill="url(#paint20_linear_108_12459)" />
    <path d="M391.929 215.266C402.96 221.643 402.533 232.113 390.616 238.079C381.029 242.879 364.794 242.813 355.224 237.948C349.791 235.186 346.754 231.505 346.098 227.708C345.786 225.916 341.994 225.144 339.794 226.41L296.54 251.409L340.566 276.852C343.405 278.496 341.649 281.34 337.644 281.487C331.16 281.718 324.823 283.361 320.096 286.402C311.248 292.122 311.511 300.981 320.687 306.586C330.749 312.733 347.493 312.881 357.719 306.964C362.316 304.317 364.794 300.899 365.172 297.414C365.418 295.097 370.326 294.061 373.183 295.705L417.208 321.148L528.323 256.915C533.181 254.105 533.149 249.535 528.273 246.708L416.469 182.064L373.166 207.097C370.999 208.346 372.313 210.532 375.366 210.696C381.39 211.074 387.283 212.587 391.929 215.266Z" fill="url(#paint21_linear_108_12459)" />
    <path d="M390.616 238.096C402.533 232.13 402.96 221.643 391.929 215.282C387.284 212.603 381.391 211.091 375.333 210.762C373.38 210.647 372.149 209.727 372.083 208.741L372.018 208.757V241.663C378.764 241.778 385.593 240.611 390.616 238.096Z" fill="url(#paint22_linear_108_12459)" />
    <path d="M531.917 288.654L531.999 288.637V251.656L531.917 251.672C531.999 253.562 530.801 255.469 528.306 256.915L417.191 321.148V358.13L528.306 293.897C530.801 292.467 531.999 290.56 531.917 288.654Z" fill="url(#paint23_linear_108_12459)" />
    <path d="M531.917 288.654L531.999 288.637V251.656L531.917 251.672C531.999 253.562 530.801 255.469 528.306 256.915L417.191 321.148V358.13L528.306 293.897C530.801 292.467 531.999 290.56 531.917 288.654Z" fill="url(#paint24_linear_108_12459)" />
    <path d="M320.096 286.418C324.823 283.377 331.16 281.734 337.644 281.504C341.649 281.356 343.422 278.512 340.566 276.869L296.54 251.425V288.407L313.678 298.318L313.875 298.269C312.922 294.077 314.974 289.722 320.096 286.418Z" fill="url(#paint25_linear_108_12459)" />
    <path d="M373.166 295.721C371.754 294.899 369.85 294.751 368.241 295.08V332.062C369.85 331.733 371.754 331.897 373.166 332.703L417.191 358.146V321.165L373.166 295.721Z" fill="url(#paint26_linear_108_12459)" />
    <path d="M365.156 297.431C364.778 300.915 362.299 304.318 357.703 306.98C347.477 312.897 330.733 312.766 320.671 306.602C316.813 304.235 314.548 301.293 313.858 298.253L313.661 298.302V332.539C313.333 336.5 315.664 340.51 320.671 343.567C330.733 349.731 347.477 349.862 357.703 343.945C362.299 341.299 364.778 337.88 365.156 334.396C365.287 333.213 366.6 332.374 368.258 332.046V295.064C366.617 295.409 365.287 296.247 365.156 297.431Z" fill="url(#paint27_linear_108_12459)" />
    <path d="M365.156 297.431C364.778 300.915 362.299 304.318 357.703 306.98C347.477 312.897 330.733 312.766 320.671 306.602C316.813 304.235 314.548 301.293 313.858 298.253L313.661 298.302V332.539C313.333 336.5 315.664 340.51 320.671 343.567C330.733 349.731 347.477 349.862 357.703 343.945C362.299 341.299 364.778 337.88 365.156 334.396C365.287 333.213 366.6 332.374 368.258 332.046V295.064C366.617 295.409 365.287 296.247 365.156 297.431Z" fill="url(#paint28_linear_108_12459)" />
    <path d="M332.227 329.629C323.609 337.075 305.733 338.784 293.225 333.147C283.162 328.61 280.044 319.39 286.413 313.045C290.024 309.446 295.671 307.03 301.974 305.961C304.962 305.452 305.52 303.151 302.926 302.148L251.875 282.293L217.452 312.01C215.22 313.933 210.049 313.456 208.999 311.221C207.324 307.588 203.27 304.301 197.163 302.197C185.705 298.253 170.718 300.061 163.02 306.306C154.582 313.16 157.685 322.693 169.75 327.378C175.167 329.481 181.454 330.254 187.445 329.827C191.434 329.531 194.176 332.128 191.943 334.051L157.521 363.768L288.661 414.802C294.39 417.038 302.138 416.166 305.963 412.863L393.407 337.371L342.29 317.483C339.729 316.497 336.282 317.647 336.61 319.406C337.25 322.874 335.855 326.507 332.227 329.629Z" fill="url(#paint29_linear_108_12459)" />
    <path d="M305.963 412.846C302.138 416.15 294.39 417.021 288.661 414.786L157.521 363.751V400.733L288.661 451.767C294.39 454.003 302.138 453.132 305.963 449.828L393.407 374.336V337.354L305.963 412.846Z" fill="url(#paint30_linear_108_12459)" />
    <path d="M187.445 329.794C181.453 330.238 175.166 329.465 169.749 327.345C162.904 324.682 158.948 320.458 158.341 316.053V350.849C157.98 353.955 159.293 357.062 162.133 359.741L191.926 334.018C194.175 332.095 191.434 329.515 187.445 329.794Z" fill="url(#paint31_linear_108_12459)" />
    <path d="M301.974 305.961C295.671 307.046 290.024 309.446 286.412 313.045C280.043 319.39 283.162 328.61 293.225 333.147C296.656 334.692 300.497 335.678 304.436 336.155V304.433C304.157 305.123 303.337 305.731 301.974 305.961Z" fill="url(#paint32_linear_108_12459)" />
    <path d="M426.615 126.115C425.105 126.115 423.512 125.885 421.887 125.442C421.641 125.376 421.444 125.195 421.346 124.965L418.21 117.306C417.307 116.928 416.536 116.55 415.764 116.106C415.108 115.728 414.418 115.284 413.663 114.742L410.906 118.325C410.774 118.505 410.561 118.62 410.331 118.637C410.101 118.653 409.888 118.588 409.707 118.44C407.639 116.632 405.669 114.528 403.814 112.227C403.65 112.03 403.601 111.767 403.65 111.52L405.012 105.767C403.699 103.877 402.534 101.856 401.549 99.7681L395.853 98.0423C395.607 97.9765 395.426 97.7957 395.328 97.5656C394.244 94.8043 393.423 92.0595 392.882 89.3804C392.832 89.1503 392.882 88.9202 393.013 88.7394C393.144 88.5586 393.358 88.4271 393.571 88.4106L398.069 87.8354C397.97 86.9149 397.938 86.1096 397.938 85.3535C397.938 84.4824 398.003 83.6112 398.118 82.6579L393.029 76.1163C392.865 75.9191 392.816 75.6561 392.882 75.3931C393.44 73.2728 394.293 71.4155 395.41 69.8541C395.541 69.6733 395.754 69.5418 395.984 69.5254C396.198 69.4925 396.444 69.5747 396.608 69.7226L402.107 74.4234C402.961 73.7166 403.896 73.1742 404.947 72.7962L403.634 65.7286C403.584 65.4985 403.65 65.2684 403.781 65.0876C403.913 64.9068 404.126 64.7917 404.356 64.7588C406.26 64.578 408.328 64.7917 410.446 65.367C410.692 65.4327 410.889 65.6135 410.988 65.8436L414.107 73.5029C414.993 73.8645 415.797 74.259 416.552 74.7028C417.209 75.0808 417.898 75.5246 418.637 76.067L421.411 72.4839C421.543 72.3031 421.756 72.188 421.986 72.1716C422.216 72.1552 422.429 72.2209 422.61 72.3688C424.661 74.1768 426.648 76.2807 428.503 78.5817C428.667 78.779 428.716 79.042 428.667 79.2885L427.304 85.0412C428.618 86.9314 429.783 88.953 430.768 91.0404L436.464 92.7662C436.71 92.832 436.891 93.0128 436.989 93.2429C438.073 96.0042 438.893 98.749 439.435 101.428C439.484 101.658 439.435 101.888 439.304 102.069C439.172 102.25 438.959 102.381 438.746 102.398L434.248 102.973C434.346 103.877 434.379 104.699 434.379 105.455C434.379 106.326 434.314 107.214 434.199 108.151L439.287 114.692C439.452 114.889 439.501 115.152 439.435 115.399C438.877 117.519 438.023 119.377 436.907 120.938C436.776 121.119 436.562 121.25 436.333 121.267C436.103 121.3 435.873 121.217 435.709 121.07L430.21 116.369C429.373 117.075 428.421 117.618 427.37 117.996L428.683 125.064C428.732 125.294 428.667 125.524 428.535 125.705C428.404 125.885 428.191 126 427.961 126.033C427.534 126.083 427.075 126.115 426.615 126.115ZM422.708 123.946C424.153 124.324 425.597 124.488 426.91 124.455L425.63 117.585C425.548 117.158 425.811 116.747 426.221 116.632C427.518 116.287 428.667 115.629 429.619 114.692C429.931 114.396 430.407 114.38 430.735 114.643L436.086 119.212C436.792 118.078 437.35 116.78 437.761 115.35L432.705 108.857C432.574 108.677 432.508 108.446 432.541 108.233C432.689 107.23 432.754 106.31 432.754 105.422C432.754 104.518 432.689 103.516 432.541 102.332C432.492 101.888 432.803 101.477 433.247 101.412L437.662 100.853C437.17 98.6669 436.497 96.4151 435.627 94.1798L429.964 92.4704C429.734 92.4046 429.553 92.2403 429.455 92.0266C428.421 89.7913 427.173 87.6546 425.761 85.6493C425.63 85.4521 425.581 85.222 425.63 84.9919L426.992 79.2721C425.466 77.3983 423.857 75.689 422.199 74.1604L419.474 77.6777C419.195 78.0393 418.686 78.1051 418.325 77.8257C417.357 77.086 416.536 76.5436 415.748 76.0834C414.977 75.6397 414.139 75.2287 413.187 74.8507C412.974 74.7685 412.81 74.6042 412.728 74.4069L409.625 66.7969C408.164 66.4353 406.753 66.2545 405.406 66.2874L406.687 73.1578C406.769 73.5851 406.506 73.996 406.096 74.1111C404.799 74.4562 403.65 75.1137 402.698 76.0506C402.386 76.3464 401.91 76.3628 401.582 76.0999L396.23 71.5306C395.525 72.6647 394.966 73.9631 394.556 75.3931L399.612 81.8854C399.743 82.0662 399.809 82.2799 399.776 82.51C399.628 83.5291 399.563 84.4166 399.563 85.3206C399.563 86.2246 399.628 87.2108 399.776 88.4106C399.825 88.8544 399.513 89.2653 399.07 89.3311L394.655 89.8899C395.147 92.0759 395.82 94.3277 396.69 96.563L402.353 98.2724C402.583 98.3381 402.764 98.5025 402.862 98.7162C403.896 100.935 405.144 103.088 406.556 105.093C406.687 105.291 406.736 105.521 406.687 105.751L405.324 111.471C406.851 113.344 408.46 115.054 410.118 116.582L412.826 113.065C413.105 112.703 413.614 112.638 413.975 112.917C414.927 113.64 415.764 114.199 416.552 114.659C417.34 115.103 418.145 115.498 419.113 115.892C419.327 115.974 419.491 116.139 419.573 116.336L422.708 123.946Z" fill="#007DB6" />
    <path d="M419.327 105.208C418.211 105.208 417.012 104.847 415.781 104.14C411.694 101.79 408.378 96.0534 408.378 91.3526C408.378 87.8517 410.216 85.5835 413.056 85.5835C414.173 85.5835 415.371 85.9451 416.602 86.6519C420.689 89.0022 424.005 94.7385 424.005 99.4393C424.005 102.94 422.167 105.208 419.327 105.208ZM413.056 87.2107C411.152 87.2107 410.019 88.7557 410.019 91.3362C410.019 95.511 412.974 100.59 416.602 102.694C417.57 103.252 418.506 103.548 419.327 103.548C421.231 103.548 422.364 102.003 422.364 99.4228C422.364 95.2645 419.409 90.1692 415.781 88.0654C414.813 87.5065 413.877 87.2107 413.056 87.2107Z" fill="#007DB6" />
    <path d="M351.433 59.4338C350.891 59.4338 350.316 59.2694 349.742 58.9242L342.848 54.9302C341.025 53.8783 339.597 51.4129 339.597 49.309V45.7588C339.597 43.129 338.563 39.9732 336.741 37.0969C333.064 31.2784 331.275 24.6711 331.931 19.4114C332.604 14.1683 335.855 10.8975 340.434 10.8975C342.01 10.8975 343.668 11.2755 345.375 12.048C354.026 15.9105 361.627 28.0405 361.627 38.0009C361.627 42.9482 359.722 46.6299 356.406 48.1092C354.749 48.8488 353.829 50.6075 353.829 53.0565V56.6067C353.829 57.4121 353.616 58.1024 353.206 58.6119C352.779 59.1379 352.139 59.4338 351.433 59.4338ZM340.434 12.5575C336.692 12.5575 334.131 15.2038 333.557 19.6251C332.933 24.5231 334.64 30.7196 338.12 36.2258C340.09 39.3486 341.222 42.8331 341.222 45.7588V49.309C341.222 50.8212 342.339 52.7442 343.652 53.5167L350.546 57.5107C350.858 57.6915 351.17 57.7901 351.416 57.7901C351.63 57.7901 351.794 57.7244 351.909 57.5765C352.073 57.3628 352.171 57.0341 352.171 56.6067V53.0565C352.171 49.95 353.468 47.5997 355.733 46.6135C358.426 45.4136 359.969 42.2907 359.969 38.0173C359.969 28.6322 352.828 17.209 344.686 13.5766C343.209 12.8862 341.781 12.5575 340.434 12.5575Z" fill="#007DB6" />
    <path d="M349.086 65.2356C348.675 65.2356 348.232 65.1041 347.805 64.874L344.768 63.1153C343.324 62.2771 342.175 60.1404 342.175 58.2502V54.2891L351.22 59.5158V62.5236C351.22 64.3974 350.153 65.2356 349.086 65.2356ZM343.833 57.1325V58.2338C343.833 59.5322 344.653 61.143 345.606 61.6854L348.642 63.4441C348.856 63.5756 349.004 63.592 349.102 63.592C349.447 63.592 349.594 63.0332 349.594 62.5072V60.4527L343.833 57.1325Z" fill="#007DB6" />
    <path d="M347.723 52.8758H346.081V39.1186L345.999 39.1679L339.811 28.4844L353.008 36.1108L347.723 39.1186V52.8758ZM344.308 32.9879L347 37.6394L349.693 36.0944L344.308 32.9879Z" fill="#007DB6" />
    <path d="M271.606 87.671C269.16 87.671 266.55 86.882 263.841 85.3042C254.583 79.9459 247.032 66.9284 247.032 56.2777C247.032 48.717 250.906 43.8354 256.881 43.8354C259.327 43.8354 261.937 44.6244 264.646 46.2023C273.904 51.5605 281.455 64.578 281.455 75.2287C281.471 82.7894 277.597 87.671 271.606 87.671ZM256.898 45.4791C251.825 45.4791 248.69 49.621 248.69 56.2777C248.69 66.4025 255.864 78.779 264.679 83.8906C267.108 85.2877 269.505 86.0274 271.622 86.0274C276.694 86.0274 279.83 81.8854 279.83 75.2287C279.83 65.104 272.656 52.7275 263.841 47.6322C261.412 46.2187 259.015 45.4791 256.898 45.4791Z" fill="#007DB6" />
    <path d="M274.888 71.4318L263.923 66.731C263.628 66.5995 263.431 66.3037 263.431 65.9749V52.3164H265.072V65.4326L275.545 69.9197L274.888 71.4318Z" fill="#007DB6" />
    <path d="M486.924 191.187C484.199 191.187 481.015 189.56 478.208 186.716C478.06 186.568 477.978 186.355 478.011 186.141C478.043 185.927 478.175 185.73 478.355 185.631L483.625 182.624L478.355 173.534L473.07 176.542C472.889 176.641 472.659 176.657 472.462 176.575C472.265 176.493 472.118 176.329 472.052 176.115C470.558 170.658 471.592 165.99 474.711 164.215C477.699 162.506 482.164 163.853 486.021 167.552L496.264 161.7C494.967 156.474 496.051 152.036 499.055 150.326C502.141 148.568 506.803 150.063 510.742 154.025C510.89 154.172 510.972 154.386 510.939 154.6C510.907 154.813 510.775 155.011 510.595 155.109L505.325 158.117L510.595 167.206L515.88 164.199C516.061 164.1 516.291 164.084 516.488 164.166C516.685 164.248 516.833 164.412 516.898 164.626C518.392 170.083 517.358 174.751 514.239 176.526C511.268 178.235 506.786 176.887 502.945 173.206L492.702 179.057C493.999 184.284 492.916 188.705 489.912 190.431C489.009 190.94 488.007 191.187 486.924 191.187ZM479.865 186.388C482.229 188.574 484.774 189.806 486.924 189.806C487.778 189.806 488.549 189.609 489.206 189.231C491.75 187.785 492.538 183.725 491.208 178.909C491.126 178.597 491.258 178.284 491.537 178.12L502.699 171.743C502.978 171.578 503.323 171.628 503.536 171.858C507 175.359 511.022 176.772 513.549 175.326C515.946 173.962 516.783 170.313 515.782 165.875L510.693 168.784C510.365 168.965 509.938 168.866 509.741 168.521L503.782 158.232C503.684 158.068 503.667 157.887 503.717 157.706C503.766 157.525 503.881 157.378 504.045 157.279L509.117 154.386C505.818 151.345 502.141 150.195 499.761 151.543C497.216 152.989 496.428 157.049 497.758 161.865C497.84 162.177 497.709 162.489 497.43 162.654L486.267 169.031C485.988 169.179 485.644 169.146 485.43 168.916C481.967 165.415 477.961 163.985 475.417 165.448C473.02 166.812 472.183 170.461 473.185 174.899L478.273 171.989C478.601 171.809 479.028 171.907 479.225 172.252L485.184 182.541C485.282 182.706 485.299 182.887 485.25 183.067C485.2 183.248 485.086 183.396 484.921 183.495L479.865 186.388Z" fill="#007DB6" />
    <path d="M340.139 300.093C339.679 300.093 339.318 299.732 339.318 299.271V295.984C339.318 295.524 339.679 295.162 340.139 295.162C340.599 295.162 340.96 295.524 340.96 295.984V299.271C340.96 299.715 340.599 300.093 340.139 300.093ZM340.139 293.519C339.679 293.519 339.318 293.157 339.318 292.697V289.41C339.318 288.95 339.679 288.588 340.139 288.588C340.599 288.588 340.96 288.95 340.96 289.41V292.697C340.96 293.141 340.599 293.519 340.139 293.519ZM340.139 286.944C339.679 286.944 339.318 286.583 339.318 286.122V282.835C339.318 282.375 339.679 282.013 340.139 282.013C340.599 282.013 340.96 282.375 340.96 282.835V286.122C340.96 286.566 340.599 286.944 340.139 286.944ZM340.139 280.37C339.679 280.37 339.318 280.008 339.318 279.548V276.261C339.318 275.801 339.679 275.439 340.139 275.439C340.599 275.439 340.96 275.801 340.96 276.261V279.548C340.96 279.992 340.599 280.37 340.139 280.37ZM340.139 273.795C339.679 273.795 339.318 273.434 339.318 272.973V269.686C339.318 269.226 339.679 268.864 340.139 268.864C340.599 268.864 340.96 269.226 340.96 269.686V272.973C340.96 273.417 340.599 273.795 340.139 273.795ZM340.139 267.221C339.679 267.221 339.318 266.859 339.318 266.399V263.112C339.318 262.652 339.679 262.29 340.139 262.29C340.599 262.29 340.96 262.652 340.96 263.112V266.399C340.96 266.843 340.599 267.221 340.139 267.221ZM340.139 260.646C339.679 260.646 339.318 260.285 339.318 259.824V256.537C339.318 256.077 339.679 255.715 340.139 255.715C340.599 255.715 340.96 256.077 340.96 256.537V259.824C340.96 260.268 340.599 260.646 340.139 260.646ZM340.139 254.072C339.679 254.072 339.318 253.71 339.318 253.25V249.963C339.318 249.502 339.679 249.141 340.139 249.141C340.599 249.141 340.96 249.502 340.96 249.963V253.25C340.96 253.694 340.599 254.072 340.139 254.072ZM340.139 247.497C339.679 247.497 339.318 247.136 339.318 246.675V243.388C339.318 242.928 339.679 242.566 340.139 242.566C340.599 242.566 340.96 242.928 340.96 243.388V246.675C340.96 247.119 340.599 247.497 340.139 247.497ZM340.139 240.923C339.679 240.923 339.318 240.561 339.318 240.101V236.814C339.318 236.353 339.679 235.992 340.139 235.992C340.599 235.992 340.96 236.353 340.96 236.814V240.101C340.96 240.545 340.599 240.923 340.139 240.923ZM340.139 234.348C339.679 234.348 339.318 233.987 339.318 233.526V230.239C339.318 229.779 339.679 229.417 340.139 229.417C340.599 229.417 340.96 229.779 340.96 230.239V233.526C340.96 233.97 340.599 234.348 340.139 234.348ZM340.139 227.774C339.679 227.774 339.318 227.412 339.318 226.952V223.665C339.318 223.204 339.679 222.843 340.139 222.843C340.599 222.843 340.96 223.204 340.96 223.665V226.952C340.96 227.396 340.599 227.774 340.139 227.774ZM340.139 221.199C339.679 221.199 339.318 220.838 339.318 220.377V217.09C339.318 216.63 339.679 216.268 340.139 216.268C340.599 216.268 340.96 216.63 340.96 217.09V220.377C340.96 220.821 340.599 221.199 340.139 221.199ZM342.125 215.742C341.846 215.742 341.584 215.594 341.42 215.348C341.19 214.953 341.305 214.46 341.699 214.214L344.506 212.504C344.9 212.274 345.392 212.389 345.638 212.784C345.868 213.178 345.753 213.671 345.359 213.918L342.552 215.627C342.421 215.71 342.273 215.742 342.125 215.742ZM347.756 212.34C347.477 212.34 347.214 212.192 347.05 211.946C346.82 211.551 346.935 211.058 347.329 210.812L350.136 209.102C350.53 208.872 351.022 208.987 351.269 209.382C351.498 209.776 351.384 210.269 350.99 210.516L348.183 212.225C348.035 212.291 347.904 212.34 347.756 212.34ZM353.37 208.938C353.091 208.938 352.828 208.79 352.664 208.543C352.434 208.149 352.549 207.656 352.943 207.409L355.75 205.7C356.144 205.47 356.636 205.585 356.883 205.979C357.112 206.374 356.998 206.867 356.604 207.113L353.797 208.823C353.665 208.888 353.517 208.938 353.37 208.938ZM358.984 205.519C358.705 205.519 358.442 205.371 358.278 205.125C358.048 204.73 358.163 204.237 358.557 203.99L361.364 202.281C361.758 202.051 362.25 202.166 362.497 202.561C362.726 202.955 362.612 203.448 362.218 203.695L359.411 205.404C359.279 205.486 359.131 205.519 358.984 205.519ZM364.598 202.117C364.319 202.117 364.056 201.969 363.892 201.722C363.662 201.328 363.777 200.835 364.171 200.588L366.978 198.879C367.372 198.649 367.864 198.764 368.111 199.158C368.34 199.553 368.226 200.046 367.832 200.292L365.025 202.002C364.893 202.084 364.745 202.117 364.598 202.117ZM370.212 198.714C369.933 198.714 369.67 198.566 369.506 198.32C369.276 197.925 369.391 197.432 369.785 197.186L372.592 195.476C372.986 195.246 373.478 195.361 373.725 195.756C373.954 196.15 373.84 196.643 373.446 196.89L370.639 198.599C370.507 198.682 370.359 198.714 370.212 198.714ZM375.842 195.312C375.563 195.312 375.3 195.164 375.136 194.918C374.906 194.523 375.021 194.03 375.415 193.784L378.222 192.074C378.616 191.844 379.109 191.959 379.355 192.354C379.585 192.748 379.47 193.241 379.076 193.488L376.269 195.197C376.121 195.279 375.973 195.312 375.842 195.312ZM381.456 191.91C381.177 191.91 380.914 191.762 380.75 191.515C380.52 191.121 380.635 190.628 381.029 190.381L383.836 188.672C384.23 188.442 384.723 188.557 384.969 188.951C385.199 189.346 385.084 189.839 384.69 190.085L381.883 191.795C381.752 191.86 381.604 191.91 381.456 191.91ZM387.07 188.507C386.791 188.507 386.528 188.36 386.364 188.113C386.134 187.719 386.249 187.225 386.643 186.979L389.45 185.27C389.844 185.039 390.337 185.154 390.583 185.549C390.813 185.943 390.698 186.437 390.304 186.683L387.497 188.392C387.366 188.458 387.218 188.507 387.07 188.507ZM392.684 185.105C392.405 185.105 392.142 184.957 391.978 184.711C391.748 184.316 391.863 183.823 392.257 183.577L395.064 181.867C395.458 181.637 395.951 181.752 396.197 182.147C396.427 182.541 396.312 183.034 395.918 183.281L393.111 184.99C392.98 185.056 392.832 185.105 392.684 185.105ZM398.298 181.686C398.019 181.686 397.756 181.539 397.592 181.292C397.362 180.898 397.477 180.404 397.871 180.158L400.678 178.449C401.072 178.218 401.565 178.333 401.811 178.728C402.041 179.122 401.926 179.615 401.532 179.862L398.725 181.571C398.594 181.654 398.446 181.686 398.298 181.686ZM403.912 178.284C403.633 178.284 403.37 178.136 403.206 177.89C402.976 177.495 403.091 177.002 403.485 176.756L406.292 175.046C406.686 174.816 407.179 174.931 407.425 175.326C407.655 175.72 407.54 176.213 407.146 176.46L404.339 178.169C404.208 178.251 404.06 178.284 403.912 178.284ZM409.543 174.882C409.263 174.882 409.001 174.734 408.837 174.487C408.607 174.093 408.722 173.6 409.116 173.353L411.923 171.644C412.317 171.414 412.809 171.529 413.055 171.923C413.285 172.318 413.17 172.811 412.776 173.057L409.969 174.767C409.822 174.849 409.674 174.882 409.543 174.882ZM415.157 171.48C414.877 171.48 414.615 171.332 414.451 171.085C414.221 170.691 414.336 170.197 414.73 169.951L415.239 169.639V167.88C415.239 167.42 415.6 167.058 416.059 167.058C416.519 167.058 416.88 167.42 416.88 167.88V170.099C416.88 170.378 416.732 170.658 416.486 170.806L415.567 171.364C415.452 171.43 415.304 171.48 415.157 171.48ZM416.059 165.415C415.6 165.415 415.239 165.053 415.239 164.593V161.305C415.239 160.845 415.6 160.484 416.059 160.484C416.519 160.484 416.88 160.845 416.88 161.305V164.593C416.88 165.053 416.519 165.415 416.059 165.415ZM416.059 158.84C415.6 158.84 415.239 158.478 415.239 158.018V154.731C415.239 154.271 415.6 153.909 416.059 153.909C416.519 153.909 416.88 154.271 416.88 154.731V158.018C416.88 158.478 416.519 158.84 416.059 158.84ZM416.059 152.266C415.6 152.266 415.239 151.904 415.239 151.444V148.156C415.239 147.696 415.6 147.335 416.059 147.335C416.519 147.335 416.88 147.696 416.88 148.156V151.444C416.88 151.904 416.519 152.266 416.059 152.266ZM416.059 145.691C415.6 145.691 415.239 145.329 415.239 144.869V141.582C415.239 141.122 415.6 140.76 416.059 140.76C416.519 140.76 416.88 141.122 416.88 141.582V144.869C416.88 145.329 416.519 145.691 416.059 145.691ZM416.059 139.117C415.6 139.117 415.239 138.755 415.239 138.295V135.007C415.239 134.547 415.6 134.186 416.059 134.186C416.519 134.186 416.88 134.547 416.88 135.007V138.295C416.88 138.755 416.519 139.117 416.059 139.117ZM416.059 132.542C415.6 132.542 415.239 132.18 415.239 131.72V128.433C415.239 127.973 415.6 127.611 416.059 127.611C416.519 127.611 416.88 127.973 416.88 128.433V131.72C416.88 132.18 416.519 132.542 416.059 132.542ZM416.059 125.968C415.6 125.968 415.239 125.606 415.239 125.146V121.858C415.239 121.398 415.6 121.037 416.059 121.037C416.519 121.037 416.88 121.398 416.88 121.858V125.146C416.88 125.606 416.519 125.968 416.059 125.968Z" fill="#007DB6" />
    <path d="M345.211 189.56C344.752 189.56 344.391 189.198 344.391 188.738V187.916C344.391 187.456 344.752 187.094 345.211 187.094C345.671 187.094 346.032 187.456 346.032 187.916V188.738C346.032 189.181 345.655 189.56 345.211 189.56ZM345.211 185.45C344.752 185.45 344.391 185.089 344.391 184.629V181.341C344.391 180.881 344.752 180.52 345.211 180.52C345.671 180.52 346.032 180.881 346.032 181.341V184.629C346.032 185.072 345.655 185.45 345.211 185.45ZM345.211 178.876C344.752 178.876 344.391 178.514 344.391 178.054V174.767C344.391 174.307 344.752 173.945 345.211 173.945C345.671 173.945 346.032 174.307 346.032 174.767V178.054C346.032 178.498 345.655 178.876 345.211 178.876ZM345.211 172.301C344.752 172.301 344.391 171.94 344.391 171.48V168.192C344.391 167.732 344.752 167.371 345.211 167.371C345.671 167.371 346.032 167.732 346.032 168.192V171.48C346.032 171.923 345.655 172.301 345.211 172.301ZM345.211 165.727C344.752 165.727 344.391 165.365 344.391 164.905V161.618C344.391 161.158 344.752 160.796 345.211 160.796C345.671 160.796 346.032 161.158 346.032 161.618V164.905C346.032 165.349 345.655 165.727 345.211 165.727ZM345.211 159.152C344.752 159.152 344.391 158.791 344.391 158.331V155.043C344.391 154.583 344.752 154.222 345.211 154.222C345.671 154.222 346.032 154.583 346.032 155.043V158.331C346.032 158.774 345.655 159.152 345.211 159.152ZM345.211 152.578C344.752 152.578 344.391 152.216 344.391 151.756V148.469C344.391 148.009 344.752 147.647 345.211 147.647C345.671 147.647 346.032 148.009 346.032 148.469V151.756C346.032 152.2 345.655 152.578 345.211 152.578ZM345.211 146.003C344.752 146.003 344.391 145.642 344.391 145.182V141.894C344.391 141.434 344.752 141.073 345.211 141.073C345.671 141.073 346.032 141.434 346.032 141.894V145.182C346.032 145.625 345.655 146.003 345.211 146.003ZM345.211 139.429C344.752 139.429 344.391 139.067 344.391 138.607V135.32C344.391 134.86 344.752 134.498 345.211 134.498C345.671 134.498 346.032 134.86 346.032 135.32V138.607C346.032 139.051 345.655 139.429 345.211 139.429ZM345.211 132.854C344.752 132.854 344.391 132.493 344.391 132.033V128.745C344.391 128.285 344.752 127.923 345.211 127.923C345.671 127.923 346.032 128.285 346.032 128.745V132.033C346.032 132.476 345.655 132.854 345.211 132.854ZM345.211 126.28C344.752 126.28 344.391 125.918 344.391 125.458V122.171C344.391 121.711 344.752 121.349 345.211 121.349C345.671 121.349 346.032 121.711 346.032 122.171V125.458C346.032 125.902 345.655 126.28 345.211 126.28ZM345.211 119.705C344.752 119.705 344.391 119.344 344.391 118.884V115.596C344.391 115.136 344.752 114.774 345.211 114.774C345.671 114.774 346.032 115.136 346.032 115.596V118.884C346.032 119.327 345.655 119.705 345.211 119.705ZM345.211 113.131C344.752 113.131 344.391 112.769 344.391 112.309V109.022C344.391 108.562 344.752 108.2 345.211 108.2C345.671 108.2 346.032 108.562 346.032 109.022V112.309C346.032 112.753 345.655 113.131 345.211 113.131ZM345.211 106.556C344.752 106.556 344.391 106.195 344.391 105.735V102.447C344.391 101.987 344.752 101.625 345.211 101.625C345.671 101.625 346.032 101.987 346.032 102.447V105.735C346.032 106.178 345.655 106.556 345.211 106.556ZM345.211 99.9818C344.752 99.9818 344.391 99.6202 344.391 99.16V95.8728C344.391 95.4126 344.752 95.051 345.211 95.051C345.671 95.051 346.032 95.4126 346.032 95.8728V99.16C346.032 99.6038 345.655 99.9818 345.211 99.9818ZM345.211 93.4073C344.752 93.4073 344.391 93.0457 344.391 92.5855V89.2983C344.391 88.838 344.752 88.4765 345.211 88.4765C345.671 88.4765 346.032 88.838 346.032 89.2983V92.5855C346.032 93.0293 345.655 93.4073 345.211 93.4073ZM345.211 86.8328C344.752 86.8328 344.391 86.4712 344.391 86.011V82.7238C344.391 82.2635 344.752 81.9019 345.211 81.9019C345.671 81.9019 346.032 82.2635 346.032 82.7238V86.011C346.032 86.4548 345.655 86.8328 345.211 86.8328ZM345.211 80.2583C344.752 80.2583 344.391 79.8967 344.391 79.4365V76.1493C344.391 75.689 344.752 75.3274 345.211 75.3274C345.671 75.3274 346.032 75.689 346.032 76.1493V79.4365C346.032 79.8803 345.655 80.2583 345.211 80.2583ZM345.211 73.6838C344.752 73.6838 344.391 73.3222 344.391 72.862V69.5747C344.391 69.1145 344.752 68.7529 345.211 68.7529C345.671 68.7529 346.032 69.1145 346.032 69.5747V72.862C346.032 73.3058 345.655 73.6838 345.211 73.6838Z" fill="#007DB6" />
    <path d="M191.992 208.724C191.532 208.724 191.171 208.362 191.171 207.902V204.615C191.171 204.155 191.532 203.793 191.992 203.793C192.451 203.793 192.812 204.155 192.812 204.615V207.902C192.812 208.362 192.451 208.724 191.992 208.724ZM191.992 202.15C191.532 202.15 191.171 201.788 191.171 201.328V198.04C191.171 197.58 191.532 197.219 191.992 197.219C192.451 197.219 192.812 197.58 192.812 198.04V201.328C192.812 201.788 192.451 202.15 191.992 202.15ZM191.992 195.575C191.532 195.575 191.171 195.213 191.171 194.753V191.466C191.171 191.006 191.532 190.644 191.992 190.644C192.451 190.644 192.812 191.006 192.812 191.466V194.753C192.812 195.213 192.451 195.575 191.992 195.575ZM191.992 189.001C191.532 189.001 191.171 188.639 191.171 188.179V184.891C191.171 184.431 191.532 184.07 191.992 184.07C192.451 184.07 192.812 184.431 192.812 184.891V188.179C192.812 188.639 192.451 189.001 191.992 189.001ZM191.992 182.426C191.532 182.426 191.171 182.064 191.171 181.604V178.317C191.171 177.857 191.532 177.495 191.992 177.495C192.451 177.495 192.812 177.857 192.812 178.317V181.604C192.812 182.064 192.451 182.426 191.992 182.426ZM191.992 175.852C191.532 175.852 191.171 175.49 191.171 175.03V171.742C191.171 171.282 191.532 170.921 191.992 170.921C192.451 170.921 192.812 171.282 192.812 171.742V175.03C192.812 175.49 192.451 175.852 191.992 175.852ZM191.992 169.277C191.532 169.277 191.171 168.915 191.171 168.455V165.168C191.171 164.708 191.532 164.346 191.992 164.346C192.451 164.346 192.812 164.708 192.812 165.168V168.455C192.812 168.915 192.451 169.277 191.992 169.277ZM191.992 162.702C191.532 162.702 191.171 162.341 191.171 161.881V158.593C191.171 158.133 191.532 157.772 191.992 157.772C192.451 157.772 192.812 158.133 192.812 158.593V161.881C192.812 162.341 192.451 162.702 191.992 162.702ZM191.992 156.128C191.532 156.128 191.171 155.766 191.171 155.306V152.019C191.171 151.559 191.532 151.197 191.992 151.197C192.451 151.197 192.812 151.559 192.812 152.019V155.306C192.812 155.766 192.451 156.128 191.992 156.128ZM191.992 149.553C191.532 149.553 191.171 149.192 191.171 148.732V145.444C191.171 144.984 191.532 144.623 191.992 144.623C192.451 144.623 192.812 144.984 192.812 145.444V148.732C192.812 149.192 192.451 149.553 191.992 149.553ZM191.992 142.979C191.532 142.979 191.171 142.617 191.171 142.157V138.87C191.171 138.41 191.532 138.048 191.992 138.048C192.451 138.048 192.812 138.41 192.812 138.87V142.157C192.812 142.617 192.451 142.979 191.992 142.979ZM191.992 136.404C191.532 136.404 191.171 136.043 191.171 135.583V132.295C191.171 131.835 191.532 131.474 191.992 131.474C192.451 131.474 192.812 131.835 192.812 132.295V135.583C192.812 136.043 192.451 136.404 191.992 136.404ZM191.992 129.83C191.532 129.83 191.171 129.468 191.171 129.008V125.721C191.171 125.261 191.532 124.899 191.992 124.899C192.451 124.899 192.812 125.261 192.812 125.721V129.008C192.812 129.468 192.451 129.83 191.992 129.83ZM191.992 123.255C191.532 123.255 191.171 122.894 191.171 122.434V119.146C191.171 118.686 191.532 118.325 191.992 118.325C192.451 118.325 192.812 118.686 192.812 119.146V122.434C192.812 122.894 192.451 123.255 191.992 123.255ZM191.992 116.681C191.532 116.681 191.171 116.319 191.171 115.859V112.572C191.171 112.112 191.532 111.75 191.992 111.75C192.451 111.75 192.812 112.112 192.812 112.572V115.859C192.812 116.319 192.451 116.681 191.992 116.681ZM191.992 110.106C191.532 110.106 191.171 109.745 191.171 109.285V105.997C191.171 105.537 191.532 105.176 191.992 105.176C192.451 105.176 192.812 105.537 192.812 105.997V109.285C192.812 109.745 192.451 110.106 191.992 110.106ZM191.992 103.532C191.532 103.532 191.171 103.17 191.171 102.71V99.4229C191.171 98.9627 191.532 98.6011 191.992 98.6011C192.451 98.6011 192.812 98.9627 192.812 99.4229V102.71C192.812 103.17 192.451 103.532 191.992 103.532ZM191.992 96.9574C191.532 96.9574 191.171 96.5958 191.171 96.1356V92.8484C191.171 92.3881 191.532 92.0265 191.992 92.0265C192.451 92.0265 192.812 92.3881 192.812 92.8484V96.1356C192.812 96.5958 192.451 96.9574 191.992 96.9574ZM191.992 90.3829C191.532 90.3829 191.171 90.0213 191.171 89.5611V86.2739C191.171 85.8136 191.532 85.452 191.992 85.452C192.451 85.452 192.812 85.8136 192.812 86.2739V89.5611C192.812 90.0213 192.451 90.3829 191.992 90.3829ZM191.992 83.8084C191.532 83.8084 191.171 83.4468 191.171 82.9866V79.6993C191.171 79.2391 191.532 78.8775 191.992 78.8775C192.451 78.8775 192.812 79.2391 192.812 79.6993V82.9866C192.812 83.4468 192.451 83.8084 191.992 83.8084ZM191.992 77.2339C191.532 77.2339 191.171 76.8723 191.171 76.4121V73.1248C191.171 72.6646 191.532 72.303 191.992 72.303C192.451 72.303 192.812 72.6646 192.812 73.1248V76.4121C192.812 76.8723 192.451 77.2339 191.992 77.2339ZM191.992 70.6594C191.532 70.6594 191.171 70.2978 191.171 69.8376V66.5503C191.171 66.0901 191.532 65.7285 191.992 65.7285C192.451 65.7285 192.812 66.0901 192.812 66.5503V69.8376C192.812 70.2978 192.451 70.6594 191.992 70.6594Z" fill="#007DB6" />
    <path d="M182.143 313.374C181.683 313.374 181.322 313.012 181.322 312.552V309.265C181.322 308.805 181.683 308.443 182.143 308.443C182.602 308.443 182.963 308.805 182.963 309.265V312.552C182.963 313.012 182.602 313.374 182.143 313.374ZM182.143 306.799C181.683 306.799 181.322 306.438 181.322 305.978V302.69C181.322 302.23 181.683 301.868 182.143 301.868C182.602 301.868 182.963 302.23 182.963 302.69V305.978C182.963 306.438 182.602 306.799 182.143 306.799ZM182.143 300.225C181.683 300.225 181.322 299.863 181.322 299.403V296.116C181.322 295.656 181.683 295.294 182.143 295.294C182.602 295.294 182.963 295.656 182.963 296.116V299.403C182.963 299.863 182.602 300.225 182.143 300.225ZM182.143 293.65C181.683 293.65 181.322 293.289 181.322 292.829V289.541C181.322 289.081 181.683 288.719 182.143 288.719C182.602 288.719 182.963 289.081 182.963 289.541V292.829C182.963 293.289 182.602 293.65 182.143 293.65ZM182.143 287.076C181.683 287.076 181.322 286.714 181.322 286.254V282.967C181.322 282.507 181.683 282.145 182.143 282.145C182.602 282.145 182.963 282.507 182.963 282.967V286.254C182.963 286.714 182.602 287.076 182.143 287.076ZM182.143 280.501C181.683 280.501 181.322 280.14 181.322 279.68V276.392C181.322 275.932 181.683 275.57 182.143 275.57C182.602 275.57 182.963 275.932 182.963 276.392V279.68C182.963 280.14 182.602 280.501 182.143 280.501ZM182.143 273.927C181.683 273.927 181.322 273.565 181.322 273.105V269.818C181.322 269.358 181.683 268.996 182.143 268.996C182.602 268.996 182.963 269.358 182.963 269.818V273.105C182.963 273.565 182.602 273.927 182.143 273.927ZM182.143 267.352C181.683 267.352 181.322 266.991 181.322 266.531V263.243C181.322 262.783 181.683 262.421 182.143 262.421C182.602 262.421 182.963 262.783 182.963 263.243V266.531C182.963 266.991 182.602 267.352 182.143 267.352ZM182.143 260.778C181.683 260.778 181.322 260.416 181.322 259.956V256.669C181.322 256.209 181.683 255.847 182.143 255.847C182.602 255.847 182.963 256.209 182.963 256.669V259.956C182.963 260.416 182.602 260.778 182.143 260.778ZM182.143 254.203C181.683 254.203 181.322 253.842 181.322 253.382V250.094C181.322 249.634 181.683 249.272 182.143 249.272C182.602 249.272 182.963 249.634 182.963 250.094V253.382C182.963 253.842 182.602 254.203 182.143 254.203ZM182.143 247.629C181.683 247.629 181.322 247.267 181.322 246.807V243.52C181.322 243.06 181.683 242.698 182.143 242.698C182.602 242.698 182.963 243.06 182.963 243.52V246.807C182.963 247.267 182.602 247.629 182.143 247.629ZM182.143 241.054C181.683 241.054 181.322 240.693 181.322 240.232V236.945C181.322 236.485 181.683 236.123 182.143 236.123C182.602 236.123 182.963 236.485 182.963 236.945V240.232C182.963 240.693 182.602 241.054 182.143 241.054ZM179.877 235.811C179.746 235.811 179.598 235.778 179.467 235.713L176.611 234.102C176.217 233.872 176.069 233.379 176.299 232.984C176.512 232.59 177.021 232.442 177.415 232.672L180.271 234.283C180.665 234.513 180.813 235.006 180.583 235.4C180.452 235.647 180.173 235.811 179.877 235.811ZM174.165 232.573C174.034 232.573 173.886 232.54 173.755 232.475L170.898 230.864C170.504 230.634 170.357 230.141 170.586 229.746C170.8 229.352 171.309 229.204 171.703 229.434L174.559 231.045C174.953 231.275 175.101 231.768 174.871 232.162C174.723 232.425 174.444 232.573 174.165 232.573ZM168.452 229.352C168.321 229.352 168.173 229.319 168.042 229.253L165.186 227.642C164.792 227.412 164.644 226.919 164.874 226.525C165.104 226.13 165.596 225.982 165.99 226.212L168.846 227.823C169.24 228.053 169.388 228.546 169.158 228.941C169.011 229.187 168.731 229.352 168.452 229.352ZM162.724 226.114C162.592 226.114 162.444 226.081 162.313 226.015L159.457 224.404C159.063 224.174 158.915 223.681 159.145 223.287C159.375 222.892 159.867 222.744 160.261 222.974L163.117 224.585C163.511 224.815 163.659 225.308 163.429 225.703C163.298 225.966 163.019 226.114 162.724 226.114ZM157.011 222.892C156.88 222.892 156.732 222.859 156.601 222.794L153.744 221.183C153.35 220.953 153.203 220.46 153.433 220.065C153.662 219.671 154.155 219.523 154.549 219.753L157.405 221.364C157.799 221.594 157.947 222.087 157.717 222.481C157.569 222.744 157.29 222.892 157.011 222.892ZM151.282 219.654C151.151 219.654 151.003 219.621 150.872 219.556L148.016 217.945C147.622 217.715 147.474 217.222 147.704 216.827C147.933 216.433 148.426 216.285 148.82 216.515L151.676 218.126C152.07 218.356 152.218 218.849 151.988 219.243C151.857 219.506 151.578 219.654 151.282 219.654ZM145.57 216.433C145.438 216.433 145.291 216.4 145.159 216.334L142.303 214.723C141.909 214.493 141.761 214 141.991 213.606C142.221 213.211 142.713 213.063 143.107 213.293L145.964 214.904C146.358 215.134 146.505 215.627 146.275 216.022C146.128 216.285 145.849 216.433 145.57 216.433ZM139.841 213.195C139.709 213.195 139.562 213.162 139.43 213.096L136.574 211.485C136.18 211.255 136.032 210.762 136.262 210.368C136.476 209.973 136.985 209.825 137.378 210.055L140.235 211.666C140.629 211.896 140.776 212.389 140.547 212.784C140.415 213.047 140.136 213.195 139.841 213.195ZM134.128 209.973C133.997 209.973 133.849 209.94 133.718 209.875L130.862 208.264C130.468 208.034 130.32 207.541 130.55 207.146C130.78 206.752 131.272 206.604 131.666 206.834L134.522 208.445C134.916 208.675 135.064 209.168 134.834 209.562C134.686 209.825 134.407 209.973 134.128 209.973ZM128.399 206.752C128.268 206.752 128.12 206.719 127.989 206.653L125.133 205.042C124.739 204.812 124.591 204.319 124.821 203.925C125.034 203.53 125.543 203.382 125.937 203.612L128.793 205.223C129.187 205.453 129.335 205.946 129.105 206.341C128.974 206.587 128.695 206.752 128.399 206.752ZM122.687 203.514C122.556 203.514 122.408 203.481 122.276 203.415L119.42 201.804C119.026 201.574 118.879 201.081 119.108 200.687C119.338 200.292 119.831 200.144 120.225 200.375L123.081 201.985C123.475 202.215 123.623 202.708 123.393 203.103C123.245 203.366 122.966 203.514 122.687 203.514ZM116.974 200.292C116.843 200.292 116.695 200.259 116.564 200.194L113.708 198.583C113.314 198.353 113.166 197.86 113.396 197.465C113.626 197.071 114.118 196.923 114.512 197.153L117.368 198.764C117.762 198.994 117.91 199.487 117.68 199.881C117.532 200.128 117.253 200.292 116.974 200.292ZM111.245 197.054C111.114 197.054 110.966 197.022 110.835 196.956L107.979 195.345C107.585 195.115 107.437 194.622 107.667 194.227C107.88 193.833 108.389 193.685 108.783 193.915L111.639 195.526C112.033 195.756 112.181 196.249 111.951 196.643C111.804 196.906 111.525 197.054 111.245 197.054ZM105.533 193.833C105.402 193.833 105.254 193.8 105.123 193.734L102.266 192.124C101.872 191.893 101.725 191.4 101.954 191.006C102.184 190.611 102.677 190.463 103.071 190.694L105.927 192.304C106.321 192.534 106.469 193.028 106.239 193.422C106.091 193.685 105.812 193.833 105.533 193.833ZM99.8041 190.595C99.6728 190.595 99.525 190.562 99.3937 190.496L96.5375 188.886C96.1435 188.655 95.9958 188.162 96.2256 187.768C96.4554 187.373 96.9478 187.226 97.3418 187.456L100.198 189.066C100.592 189.296 100.74 189.79 100.51 190.184C100.379 190.447 100.1 190.595 99.8041 190.595ZM94.0916 187.373C93.9603 187.373 93.8125 187.341 93.6812 187.275L90.825 185.664C90.431 185.434 90.2833 184.941 90.5131 184.546C90.7429 184.152 91.2354 184.004 91.6293 184.234L94.4856 185.845C94.8795 186.075 95.0273 186.568 94.7974 186.963C94.6497 187.226 94.3707 187.373 94.0916 187.373ZM88.3627 184.152C88.2314 184.152 88.0836 184.119 87.9523 184.053L87.345 183.708C87.0823 183.56 86.9346 183.297 86.9346 182.985V180.388C86.9346 179.928 87.2957 179.566 87.7553 179.566C88.215 179.566 88.5761 179.928 88.5761 180.388V182.492L88.7731 182.607C89.167 182.837 89.3148 183.33 89.085 183.725C88.9372 183.988 88.6582 184.152 88.3627 184.152ZM87.7553 177.923C87.2957 177.923 86.9346 177.561 86.9346 177.101V173.814C86.9346 173.353 87.2957 172.992 87.7553 172.992C88.215 172.992 88.5761 173.353 88.5761 173.814V177.101C88.5761 177.561 88.215 177.923 87.7553 177.923ZM87.7553 171.348C87.2957 171.348 86.9346 170.986 86.9346 170.526V167.239C86.9346 166.779 87.2957 166.417 87.7553 166.417C88.215 166.417 88.5761 166.779 88.5761 167.239V170.526C88.5761 170.986 88.215 171.348 87.7553 171.348ZM87.7553 164.774C87.2957 164.774 86.9346 164.412 86.9346 163.952V160.665C86.9346 160.204 87.2957 159.843 87.7553 159.843C88.215 159.843 88.5761 160.204 88.5761 160.665V163.952C88.5761 164.412 88.215 164.774 87.7553 164.774ZM87.7553 158.199C87.2957 158.199 86.9346 157.837 86.9346 157.377V154.09C86.9346 153.63 87.2957 153.268 87.7553 153.268C88.215 153.268 88.5761 153.63 88.5761 154.09V157.377C88.5761 157.837 88.215 158.199 87.7553 158.199ZM87.7553 151.625C87.2957 151.625 86.9346 151.263 86.9346 150.803V147.515C86.9346 147.055 87.2957 146.694 87.7553 146.694C88.215 146.694 88.5761 147.055 88.5761 147.515V150.803C88.5761 151.263 88.215 151.625 87.7553 151.625ZM87.7553 145.05C87.2957 145.05 86.9346 144.688 86.9346 144.228V142.157C86.9346 141.697 87.2957 141.335 87.7553 141.335C88.215 141.335 88.5761 141.697 88.5761 142.157V144.228C88.5761 144.688 88.215 145.05 87.7553 145.05Z" fill="#007DB6" />
    <path d="M486.858 212.504C486.71 212.504 486.579 212.472 486.448 212.389L483.624 210.729C483.23 210.499 483.099 209.99 483.329 209.612C483.559 209.217 484.067 209.102 484.445 209.316L487.268 210.976C487.662 211.206 487.794 211.715 487.564 212.093C487.416 212.373 487.137 212.504 486.858 212.504ZM487.876 211.009C487.416 211.009 487.055 210.647 487.055 210.187V206.9C487.055 206.439 487.416 206.078 487.876 206.078C488.335 206.078 488.697 206.439 488.697 206.9V210.187C488.697 210.647 488.335 211.009 487.876 211.009ZM481.195 209.184C481.047 209.184 480.916 209.151 480.784 209.069L477.961 207.409C477.567 207.179 477.436 206.67 477.666 206.291C477.895 205.897 478.404 205.766 478.782 205.996L481.605 207.656C481.999 207.886 482.131 208.395 481.901 208.773C481.753 209.036 481.474 209.184 481.195 209.184ZM475.532 205.864C475.384 205.864 475.253 205.831 475.121 205.749L472.298 204.089C471.904 203.859 471.773 203.349 472.002 202.971C472.232 202.577 472.741 202.462 473.119 202.676L475.942 204.336C476.336 204.566 476.467 205.075 476.237 205.453C476.09 205.716 475.811 205.864 475.532 205.864ZM487.876 204.434C487.416 204.434 487.055 204.073 487.055 203.612V200.325C487.055 199.865 487.416 199.503 487.876 199.503C488.335 199.503 488.697 199.865 488.697 200.325V203.612C488.697 204.073 488.335 204.434 487.876 204.434ZM469.868 202.528C469.721 202.528 469.589 202.495 469.458 202.413L466.635 200.752C466.241 200.522 466.109 200.013 466.339 199.635C466.569 199.24 467.078 199.125 467.455 199.339L470.279 200.999C470.673 201.229 470.804 201.739 470.574 202.117C470.427 202.38 470.147 202.528 469.868 202.528ZM464.205 199.207C464.057 199.207 463.926 199.175 463.795 199.092L460.955 197.432C460.561 197.202 460.43 196.693 460.659 196.315C460.889 195.92 461.398 195.805 461.776 196.019L464.616 197.679C465.009 197.909 465.141 198.419 464.911 198.797C464.763 199.06 464.484 199.207 464.205 199.207ZM487.876 197.86C487.416 197.86 487.055 197.498 487.055 197.038V195.033C487.055 194.572 487.416 194.211 487.876 194.211C488.335 194.211 488.697 194.572 488.697 195.033V197.038C488.697 197.498 488.335 197.86 487.876 197.86ZM458.542 195.871C458.394 195.871 458.263 195.838 458.132 195.756L455.292 194.096C454.898 193.866 454.766 193.356 454.996 192.978C455.226 192.584 455.735 192.452 456.112 192.682L458.952 194.342C459.346 194.572 459.478 195.082 459.248 195.46C459.1 195.739 458.821 195.871 458.542 195.871ZM452.879 192.551C452.731 192.551 452.6 192.518 452.468 192.436L449.628 190.776C449.234 190.546 449.103 190.036 449.333 189.658C449.563 189.264 450.072 189.132 450.449 189.362L453.289 191.022C453.683 191.252 453.814 191.762 453.585 192.14C453.437 192.403 453.158 192.551 452.879 192.551ZM447.215 189.231C447.068 189.231 446.936 189.198 446.805 189.116L443.965 187.456C443.571 187.225 443.44 186.716 443.67 186.338C443.9 185.943 444.408 185.828 444.786 186.042L447.626 187.702C448.02 187.932 448.151 188.442 447.921 188.82C447.774 189.083 447.494 189.231 447.215 189.231ZM441.552 185.894C441.404 185.894 441.273 185.861 441.142 185.779L438.318 184.119C437.924 183.889 437.793 183.379 438.023 183.001C438.253 182.607 438.762 182.475 439.139 182.705L441.963 184.365C442.356 184.596 442.488 185.105 442.258 185.483C442.11 185.746 441.831 185.894 441.552 185.894ZM435.889 182.574C435.741 182.574 435.61 182.541 435.479 182.459L432.655 180.799C432.261 180.569 432.13 180.059 432.36 179.681C432.589 179.287 433.098 179.155 433.476 179.385L436.299 181.045C436.693 181.275 436.825 181.785 436.595 182.163C436.447 182.426 436.168 182.574 435.889 182.574ZM430.226 179.237C430.078 179.237 429.947 179.205 429.815 179.122L426.992 177.462C426.598 177.232 426.467 176.723 426.696 176.345C426.926 175.95 427.435 175.819 427.813 176.049L430.636 177.709C431.03 177.939 431.161 178.448 430.932 178.826C430.784 179.106 430.505 179.237 430.226 179.237ZM424.562 175.917C424.415 175.917 424.283 175.884 424.152 175.802L421.329 174.142C420.935 173.912 420.803 173.403 421.033 173.024C421.263 172.63 421.772 172.515 422.149 172.729L424.973 174.389C425.367 174.619 425.498 175.128 425.268 175.506C425.121 175.769 424.842 175.917 424.562 175.917ZM418.899 172.581C418.751 172.581 418.62 172.548 418.489 172.466L415.665 170.806C415.271 170.575 415.14 170.066 415.37 169.688C415.6 169.293 416.109 169.178 416.486 169.392L419.31 171.052C419.704 171.282 419.835 171.792 419.605 172.17C419.457 172.449 419.178 172.581 418.899 172.581Z" fill="#007DB6" />
    <path d="M341.78 93.5387C341.698 93.5387 341.6 93.5223 341.518 93.4894L340.451 93.1278C340.024 92.9799 339.794 92.5197 339.942 92.0923C340.089 91.665 340.565 91.4349 340.976 91.5828L342.043 91.9444C342.47 92.0923 342.699 92.5525 342.552 92.9799C342.453 93.3251 342.125 93.5387 341.78 93.5387ZM337.611 92.1252C337.529 92.1252 337.43 92.1088 337.348 92.0759L334.229 91.024C333.802 90.876 333.573 90.4158 333.72 89.9885C333.868 89.5611 334.344 89.331 334.754 89.479L337.873 90.5309C338.3 90.6788 338.53 91.139 338.382 91.5664C338.284 91.9115 337.955 92.1252 337.611 92.1252ZM331.389 90.0214C331.307 90.0214 331.209 90.0049 331.127 89.9721L328.024 88.9201C327.597 88.7722 327.368 88.312 327.515 87.8846C327.663 87.4573 328.123 87.2272 328.55 87.3751L331.652 88.427C332.079 88.575 332.309 89.0352 332.161 89.4625C332.062 89.8077 331.734 90.0214 331.389 90.0214ZM325.168 87.9175C325.086 87.9175 324.987 87.9011 324.905 87.8682L321.803 86.8163C321.376 86.6684 321.146 86.2081 321.294 85.7808C321.442 85.3535 321.901 85.1234 322.328 85.2713L325.431 86.3232C325.857 86.4711 326.087 86.9313 325.94 87.3587C325.841 87.7038 325.513 87.9175 325.168 87.9175ZM318.947 85.8137C318.865 85.8137 318.766 85.7972 318.684 85.7644L315.582 84.7124C315.155 84.5645 314.925 84.1043 315.073 83.677C315.22 83.2496 315.68 83.0195 316.107 83.1674L319.209 84.2194C319.636 84.3673 319.866 84.8275 319.718 85.2548C319.62 85.5836 319.291 85.8137 318.947 85.8137ZM312.742 83.7098C312.66 83.7098 312.561 83.6934 312.479 83.6605L309.377 82.6086C308.95 82.4607 308.72 82.0005 308.868 81.5731C309.015 81.1458 309.492 80.9157 309.902 81.0636L313.004 82.1155C313.431 82.2634 313.661 82.7237 313.513 83.151C313.398 83.4797 313.07 83.7098 312.742 83.7098ZM306.52 81.5896C306.438 81.5896 306.34 81.5731 306.258 81.5402L303.155 80.4883C302.728 80.3404 302.499 79.8802 302.646 79.4528C302.794 79.0255 303.27 78.7954 303.681 78.9433L306.783 79.9952C307.21 80.1432 307.44 80.6034 307.292 81.0307C307.177 81.3759 306.865 81.5896 306.52 81.5896ZM300.299 79.4857C300.217 79.4857 300.118 79.4693 300.036 79.4364L296.934 78.3845C296.507 78.2366 296.277 77.7763 296.425 77.349C296.573 76.9217 297.049 76.6915 297.459 76.8395L300.562 77.8914C300.988 78.0393 301.218 78.4995 301.071 78.9269C300.956 79.272 300.644 79.4857 300.299 79.4857ZM294.078 77.3819C293.996 77.3819 293.897 77.3654 293.815 77.3326L290.713 76.2806C290.286 76.1327 290.056 75.6725 290.204 75.2452C290.351 74.8178 290.811 74.5877 291.238 74.7356L294.34 75.7876C294.767 75.9355 294.997 76.3957 294.849 76.823C294.734 77.1682 294.422 77.3819 294.078 77.3819ZM287.856 75.278C287.774 75.278 287.676 75.2616 287.594 75.2287L284.491 74.1768C284.064 74.0289 283.835 73.5687 283.982 73.1413C284.13 72.714 284.59 72.4839 285.016 72.6318L288.119 73.6837C288.546 73.8316 288.776 74.2918 288.628 74.7192C288.513 75.0644 288.201 75.278 287.856 75.278Z" fill="#007DB6" />
    <path d="M190.942 62.5562C190.843 62.5562 190.745 62.5398 190.646 62.5069C178.532 57.7404 170.144 50.6728 168.568 31.6067L168.141 26.4786C168.108 26.1663 168.272 25.854 168.551 25.6897L168.847 25.5253C176.578 21.1368 184.014 14.1843 190.367 5.40731C190.433 5.30869 190.515 5.22651 190.63 5.1772C190.81 5.07858 191.106 4.9964 191.303 5.02927C197.426 6.40992 204.96 4.73342 212.495 0.29563L212.79 0.114831C213.053 -0.0330956 213.381 -0.0330956 213.644 0.131267C213.906 0.29563 214.054 0.591483 214.021 0.887336L213.595 6.50854C212.052 27.0868 203.811 43.5723 191.91 62.0138C191.844 62.1289 191.746 62.2111 191.631 62.2768L191.336 62.4576C191.237 62.5233 191.089 62.5562 190.942 62.5562ZM169.832 26.8566L170.209 31.4588C171.687 49.4236 179.484 56.2447 190.777 60.7811C202.432 42.6848 210.476 26.4786 211.986 6.37705L212.298 2.30085C204.944 6.39349 197.623 7.95493 191.45 6.72221C185.065 15.4663 177.596 22.4188 169.832 26.8566Z" fill="#007DB6" />
    <path d="M191.023 48.421C190.925 48.421 190.826 48.4045 190.728 48.3717C183.21 45.4131 179.861 40.7288 179.172 32.1984L178.958 29.5686C178.925 29.2563 179.09 28.944 179.369 28.7796L179.516 28.6975C183.423 26.4786 187.199 22.9448 190.416 18.507C190.482 18.4084 190.58 18.3262 190.679 18.2769C190.859 18.1782 191.122 18.1125 191.302 18.1618C194.339 18.8521 198.098 17.9975 201.857 15.7786L202.005 15.6964C202.268 15.5484 202.596 15.5484 202.859 15.7128C203.121 15.8772 203.269 16.173 203.253 16.4689L203.039 19.3452C202.251 29.9631 198 38.4606 191.877 47.9608C191.811 48.0758 191.713 48.158 191.598 48.2238L191.45 48.3059C191.302 48.3881 191.171 48.421 191.023 48.421ZM180.633 29.9631L180.797 32.0669C181.519 40.8932 185.295 44.3448 190.777 46.613C196.621 37.5073 200.643 29.322 201.398 19.2137L201.496 17.8495C197.967 19.6739 194.454 20.3807 191.45 19.8547C188.249 24.2104 184.507 27.6948 180.633 29.9631Z" fill="#007DB6" />
    <path d="M69.1079 146.004C68.9601 146.004 68.8288 145.971 68.6975 145.889C68.4513 145.741 68.2871 145.478 68.2871 145.182V125.573C68.2871 125.277 68.4513 125.014 68.6975 124.867L77.2334 119.936C77.4796 119.788 77.8079 119.788 78.0542 119.936C78.3004 120.084 78.4645 120.347 78.4645 120.642V140.251C78.4645 140.547 78.3004 140.81 78.0542 140.958L69.5182 145.889C69.3869 145.954 69.2556 146.004 69.1079 146.004ZM69.9286 126.05V143.752L76.823 139.774V122.072L69.9286 126.05Z" fill="#007DB6" />
    <path d="M82.6176 138.196C82.4699 138.196 82.3386 138.163 82.2073 138.081C81.961 137.933 81.7969 137.67 81.7969 137.374V101.428C81.7969 101.132 81.961 100.869 82.2073 100.722L90.7431 95.7906C90.9894 95.6427 91.3177 95.6427 91.5639 95.7906C91.8101 95.9386 91.9743 96.2015 91.9743 96.4974V132.427C91.9743 132.723 91.8101 132.986 91.5639 133.134L83.028 138.065C82.8967 138.147 82.749 138.196 82.6176 138.196ZM83.4384 101.905V135.944L90.3328 131.967V97.9274L83.4384 101.905Z" fill="#007DB6" />
    <path d="M96.1274 130.389C95.9797 130.389 95.8483 130.356 95.717 130.274C95.4708 130.126 95.3066 129.863 95.3066 129.567V77.2999C95.3066 77.004 95.4708 76.741 95.717 76.5931L104.253 71.6622C104.499 71.5143 104.827 71.5143 105.074 71.6622C105.32 71.8101 105.484 72.0731 105.484 72.369V124.636C105.484 124.932 105.32 125.195 105.074 125.343L96.5378 130.274C96.4065 130.34 96.2587 130.389 96.1274 130.389ZM96.9482 77.7601V128.137L103.843 124.16V73.7825L96.9482 77.7601Z" fill="#007DB6" />
  </g>
  <defs>
    <linearGradient id="paint0_linear_108_12459" x1="393.381" y1="-88.5134" x2="242.657" y2="198.366" gradientUnits="userSpaceOnUse">
      <stop offset="0.0354" stop-color="#D4556B" />
      <stop offset="0.2807" stop-color="#DC5F7A" />
      <stop offset="0.7537" stop-color="#FF879F" />
      <stop offset="1" stop-color="#FE738F" />
    </linearGradient>
    <linearGradient id="paint1_linear_108_12459" x1="289.686" y1="199.61" x2="543.723" y2="62.3654" gradientUnits="userSpaceOnUse">
      <stop offset="0.0354" stop-color="#D4556B" />
      <stop offset="0.2807" stop-color="#DC5F7A" />
      <stop offset="0.7537" stop-color="#F278A3" />
      <stop offset="1" stop-color="#FF87BA" />
    </linearGradient>
    <linearGradient id="paint2_linear_108_12459" x1="273.398" y1="227.839" x2="379.571" y2="358.346" gradientUnits="userSpaceOnUse">
      <stop offset="0.0354" stop-color="#D4556B" />
      <stop offset="0.2807" stop-color="#DC5F7A" />
      <stop offset="0.7537" stop-color="#F278A3" />
      <stop offset="1" stop-color="#FF87BA" />
    </linearGradient>
    <linearGradient id="paint3_linear_108_12459" x1="302.354" y1="223.055" x2="556.389" y2="85.8113" gradientUnits="userSpaceOnUse">
      <stop offset="0.0354" stop-color="#D4556B" />
      <stop offset="0.2807" stop-color="#DC5F7A" />
      <stop offset="0.7537" stop-color="#F278A3" />
      <stop offset="1" stop-color="#FF87BA" />
    </linearGradient>
    <linearGradient id="paint4_linear_108_12459" x1="312.103" y1="229.314" x2="312.141" y2="229.361" gradientUnits="userSpaceOnUse">
      <stop offset="0.0354" stop-color="#D4556B" />
      <stop offset="0.2807" stop-color="#DC5F7A" />
      <stop offset="0.7537" stop-color="#F278A3" />
      <stop offset="1" stop-color="#FF87BA" />
    </linearGradient>
    <linearGradient id="paint5_linear_108_12459" x1="313.211" y1="228.908" x2="313.241" y2="228.943" gradientUnits="userSpaceOnUse">
      <stop offset="0.0354" stop-color="#D4556B" />
      <stop offset="0.2807" stop-color="#DC5F7A" />
      <stop offset="0.7537" stop-color="#F278A3" />
      <stop offset="1" stop-color="#FF87BA" />
    </linearGradient>
    <linearGradient id="paint6_linear_108_12459" x1="-12.9383" y1="266.395" x2="435.326" y2="166.037" gradientUnits="userSpaceOnUse">
      <stop offset="0.0354" stop-color="#D4556B" />
      <stop offset="0.2807" stop-color="#DC5F7A" />
      <stop offset="0.7537" stop-color="#F278A3" />
      <stop offset="1" stop-color="#FF87BA" />
    </linearGradient>
    <linearGradient id="paint7_linear_108_12459" x1="315.386" y1="215.771" x2="370.106" y2="215.771" gradientUnits="userSpaceOnUse">
      <stop stop-color="#D4556B" />
      <stop offset="0.0744" stop-color="#DA6076" />
      <stop offset="0.1616" stop-color="#DE677D" />
      <stop offset="0.3161" stop-color="#ED7598" />
      <stop offset="0.4848" stop-color="#FF87BA" />
      <stop offset="0.8737" stop-color="#D4556B" />
    </linearGradient>
    <linearGradient id="paint8_linear_108_12459" x1="312.712" y1="192.15" x2="312.891" y2="192.369" gradientUnits="userSpaceOnUse">
      <stop offset="0.0354" stop-color="#D4556B" />
      <stop offset="0.2807" stop-color="#DC5F7A" />
      <stop offset="0.7537" stop-color="#F278A3" />
      <stop offset="1" stop-color="#FF87BA" />
    </linearGradient>
    <linearGradient id="paint9_linear_108_12459" x1="88.3102" y1="197.504" x2="229.812" y2="165.825" gradientUnits="userSpaceOnUse">
      <stop offset="0.0354" stop-color="#D4556B" />
      <stop offset="0.2807" stop-color="#DC5F7A" />
      <stop offset="0.7537" stop-color="#F278A3" />
      <stop offset="1" stop-color="#FF87BA" />
    </linearGradient>
    <linearGradient id="paint10_linear_108_12459" x1="186.265" y1="229.266" x2="188.978" y2="228.659" gradientUnits="userSpaceOnUse">
      <stop offset="0.0354" stop-color="#D4556B" />
      <stop offset="0.2807" stop-color="#DC5F7A" />
      <stop offset="0.7537" stop-color="#F278A3" />
      <stop offset="1" stop-color="#FF87BA" />
    </linearGradient>
    <linearGradient id="paint11_linear_108_12459" x1="189.793" y1="228.626" x2="190.035" y2="228.572" gradientUnits="userSpaceOnUse">
      <stop offset="0.0354" stop-color="#D4556B" />
      <stop offset="0.2807" stop-color="#DC5F7A" />
      <stop offset="0.7537" stop-color="#F278A3" />
      <stop offset="1" stop-color="#FF87BA" />
    </linearGradient>
    <linearGradient id="paint12_linear_108_12459" x1="224.801" y1="240.879" x2="225.138" y2="240.803" gradientUnits="userSpaceOnUse">
      <stop offset="0.0354" stop-color="#D4556B" />
      <stop offset="0.2807" stop-color="#DC5F7A" />
      <stop offset="0.7537" stop-color="#F278A3" />
      <stop offset="1" stop-color="#FF87BA" />
    </linearGradient>
    <linearGradient id="paint13_linear_108_12459" x1="193.229" y1="200.088" x2="242.946" y2="200.088" gradientUnits="userSpaceOnUse">
      <stop stop-color="#D35E97" />
      <stop offset="0.0292" stop-color="#D35C8D" />
      <stop offset="0.1006" stop-color="#D4587A" />
      <stop offset="0.1742" stop-color="#D4566F" />
      <stop offset="0.2525" stop-color="#D4556B" />
      <stop offset="0.5556" stop-color="#C36A83" />
      <stop offset="0.9747" stop-color="#DE677D" />
    </linearGradient>
    <linearGradient id="paint14_linear_108_12459" x1="271.556" y1="-38.6336" x2="103.157" y2="281.887" gradientUnits="userSpaceOnUse">
      <stop offset="0.0354" stop-color="#136899" />
      <stop offset="0.3068" stop-color="#2077A8" />
      <stop offset="0.8304" stop-color="#43A0CF" />
      <stop offset="1" stop-color="#65B2D6" />
    </linearGradient>
    <linearGradient id="paint15_linear_108_12459" x1="198.982" y1="234.797" x2="257.18" y2="217.393" gradientUnits="userSpaceOnUse">
      <stop offset="0.0354" stop-color="#136899" />
      <stop offset="0.3068" stop-color="#2077A8" />
      <stop offset="0.8304" stop-color="#43A0CF" />
      <stop offset="1" stop-color="#4FAEDD" />
    </linearGradient>
    <linearGradient id="paint16_linear_108_12459" x1="132.493" y1="287.028" x2="236.093" y2="287.028" gradientUnits="userSpaceOnUse">
      <stop stop-color="#1B5A7D" />
      <stop offset="0.0949" stop-color="#1E688C" />
      <stop offset="0.2374" stop-color="#2383AB" />
      <stop offset="0.3516" stop-color="#1F6D93" />
      <stop offset="0.4394" stop-color="#1B5A7D" />
      <stop offset="0.4954" stop-color="#1B5A7D" />
      <stop offset="0.5051" stop-color="#1B5A7D" />
      <stop offset="0.5455" stop-color="#268FAA" />
      <stop offset="0.5484" stop-color="#258CA9" />
      <stop offset="0.5744" stop-color="#1B78A0" />
      <stop offset="0.6004" stop-color="#156C9B" />
      <stop offset="0.6263" stop-color="#136899" />
    </linearGradient>
    <linearGradient id="paint17_linear_108_12459" x1="-107.417" y1="345.779" x2="230.204" y2="270.192" gradientUnits="userSpaceOnUse">
      <stop offset="0.0354" stop-color="#136899" />
      <stop offset="0.3068" stop-color="#2077A8" />
      <stop offset="0.8304" stop-color="#43A0CF" />
      <stop offset="1" stop-color="#4FAEDD" />
    </linearGradient>
    <linearGradient id="paint18_linear_108_12459" x1="124.675" y1="310.655" x2="179.625" y2="393.191" gradientUnits="userSpaceOnUse">
      <stop offset="0.0354" stop-color="#136899" />
      <stop offset="0.3068" stop-color="#2077A8" />
      <stop offset="0.8304" stop-color="#43A0CF" />
      <stop offset="1" stop-color="#4FAEDD" />
    </linearGradient>
    <linearGradient id="paint19_linear_108_12459" x1="144.543" y1="340.575" x2="166.856" y2="374.089" gradientUnits="userSpaceOnUse">
      <stop offset="0.0354" stop-color="#136899" />
      <stop offset="0.3068" stop-color="#2077A8" />
      <stop offset="0.8304" stop-color="#43A0CF" />
      <stop offset="1" stop-color="#4FAEDD" />
    </linearGradient>
    <linearGradient id="paint20_linear_108_12459" x1="296.534" y1="251.638" x2="531.931" y2="251.638" gradientUnits="userSpaceOnUse">
      <stop offset="0.0354" stop-color="#AE194A" />
      <stop offset="0.2756" stop-color="#BD1E4F" />
      <stop offset="0.7389" stop-color="#E6295C" />
      <stop offset="1" stop-color="#FF3164" />
    </linearGradient>
    <linearGradient id="paint21_linear_108_12459" x1="554.777" y1="-16.0128" x2="386.379" y2="304.508" gradientUnits="userSpaceOnUse">
      <stop offset="0.0354" stop-color="#9C0E3A" />
      <stop offset="0.2756" stop-color="#BF2B5A" />
      <stop offset="0.7389" stop-color="#E6295C" />
      <stop offset="1" stop-color="#FF3164" />
    </linearGradient>
    <linearGradient id="paint22_linear_108_12459" x1="417.912" y1="225.179" x2="362.454" y2="225.179" gradientUnits="userSpaceOnUse">
      <stop stop-color="#AE194A" />
      <stop offset="0.1572" stop-color="#BD1E4F" />
      <stop offset="0.4604" stop-color="#E6295C" />
      <stop offset="0.6313" stop-color="#FF3164" />
      <stop offset="0.8737" stop-color="#DC485F" />
    </linearGradient>
    <linearGradient id="paint23_linear_108_12459" x1="460.129" y1="274.841" x2="503.445" y2="364.649" gradientUnits="userSpaceOnUse">
      <stop offset="0.0354" stop-color="#AE194A" />
      <stop offset="0.2756" stop-color="#BD1E4F" />
      <stop offset="0.7389" stop-color="#E6295C" />
      <stop offset="1" stop-color="#FF3164" />
    </linearGradient>
    <linearGradient id="paint24_linear_108_12459" x1="436.405" y1="316.361" x2="694.735" y2="239.107" gradientUnits="userSpaceOnUse">
      <stop offset="0.0354" stop-color="#AE194A" />
      <stop offset="0.2756" stop-color="#BD1E4F" />
      <stop offset="0.7389" stop-color="#E6295C" />
      <stop offset="1" stop-color="#FF3164" />
    </linearGradient>
    <linearGradient id="paint25_linear_108_12459" x1="244.107" y1="288.556" x2="392.58" y2="255.316" gradientUnits="userSpaceOnUse">
      <stop offset="0.0354" stop-color="#AE194A" />
      <stop offset="0.2756" stop-color="#BD1E4F" />
      <stop offset="0.7389" stop-color="#E6295C" />
      <stop offset="1" stop-color="#FF3164" />
    </linearGradient>
    <linearGradient id="paint26_linear_108_12459" x1="352.539" y1="335.634" x2="442.127" y2="315.577" gradientUnits="userSpaceOnUse">
      <stop offset="0.0354" stop-color="#AE194A" />
      <stop offset="0.2756" stop-color="#BD1E4F" />
      <stop offset="0.7389" stop-color="#E6295C" />
      <stop offset="1" stop-color="#FF3164" />
    </linearGradient>
    <linearGradient id="paint27_linear_108_12459" x1="347.63" y1="329.102" x2="390.947" y2="418.91" gradientUnits="userSpaceOnUse">
      <stop offset="0.0354" stop-color="#AE194A" />
      <stop offset="0.2756" stop-color="#BD1E4F" />
      <stop offset="0.7389" stop-color="#E6295C" />
      <stop offset="1" stop-color="#FF3164" />
    </linearGradient>
    <linearGradient id="paint28_linear_108_12459" x1="375.027" y1="321.687" x2="312.025" y2="321.687" gradientUnits="userSpaceOnUse">
      <stop stop-color="#AE194A" />
      <stop offset="0.1912" stop-color="#BD1E4F" />
      <stop offset="0.5599" stop-color="#E6295C" />
      <stop offset="0.7677" stop-color="#FF3164" />
      <stop offset="0.9242" stop-color="#DC485F" />
    </linearGradient>
    <linearGradient id="paint29_linear_108_12459" x1="391.815" y1="103.689" x2="247.033" y2="379.26" gradientUnits="userSpaceOnUse">
      <stop offset="0.0354" stop-color="#FFB36E" />
      <stop offset="0.46" stop-color="#F0D075" />
      <stop offset="1" stop-color="#FEDC7F" />
    </linearGradient>
    <linearGradient id="paint30_linear_108_12459" x1="157.8" y1="395.171" x2="393.697" y2="395.171" gradientUnits="userSpaceOnUse">
      <stop offset="0.0657" stop-color="#FCCE66" />
      <stop offset="0.5202" stop-color="#FACA76" />
      <stop offset="0.5909" stop-color="#FFE975" />
      <stop offset="0.5985" stop-color="#FEE375" />
      <stop offset="0.6363" stop-color="#FACC73" />
      <stop offset="0.6717" stop-color="#F8BE72" />
      <stop offset="0.702" stop-color="#F7B972" />
      <stop offset="1" stop-color="#F9BB76" />
    </linearGradient>
    <linearGradient id="paint31_linear_108_12459" x1="114.24" y1="348.233" x2="235.982" y2="320.978" gradientUnits="userSpaceOnUse">
      <stop offset="0.0354" stop-color="#FFB36E" />
      <stop offset="0.46" stop-color="#FFC274" />
      <stop offset="1" stop-color="#FEDC7F" />
    </linearGradient>
    <linearGradient id="paint32_linear_108_12459" x1="304.989" y1="320.294" x2="235.495" y2="320.294" gradientUnits="userSpaceOnUse">
      <stop offset="0.0354" stop-color="#F7B972" />
      <stop offset="0.2653" stop-color="#FAC873" />
      <stop offset="0.6313" stop-color="#FFE975" />
      <stop offset="0.8737" stop-color="#F7B972" />
    </linearGradient>
    <clipPath id="clip0_108_12459">
      <rect width="532" height="453" fill="white" />
    </clipPath>
  </defs>
</svg>